<svg xmlns="http://www.w3.org/2000/svg" xmlns:xlink="http://www.w3.org/1999/xlink" contentStyleType="text/css" data-diagram-type="CLASS" height="429px" preserveAspectRatio="none" style="width:310px;height:429px;background:#FFFFFF;" version="1.1" viewBox="0 0 310 429" width="310px" zoomAndPan="magnify"><defs/><g><!--class S--><g class="entity" data-entity="S" data-source-line="1" data-uid="ent0002" id="entity_S"><rect fill="#F1F1F1" height="408.1875" rx="2.5" ry="2.5" style="stroke:#181818;stroke-width:0.5;" width="289.6689" x="7" y="7"/><ellipse cx="74.0435" cy="23" fill="#ADD1B2" rx="11" ry="11" style="stroke:#181818;stroke-width:1;"/><path d="M76.8091,18.875 Q76.9653,18.6563 77.1528,18.5469 Q77.3403,18.4375 77.5591,18.4375 Q77.9341,18.4375 78.1685,18.7031 Q78.4028,18.9531 78.4028,19.5625 L78.4028,21.0156 Q78.4028,21.625 78.1685,21.8906 Q77.9341,22.1563 77.5591,22.1563 Q77.2153,22.1563 77.0122,21.9531 Q76.8091,21.7656 76.6997,21.25 Q76.6528,20.8906 76.4653,20.7031 Q76.1372,20.3281 75.5278,20.1094 Q74.9185,19.8906 74.2935,19.8906 Q73.5278,19.8906 72.8872,20.2188 Q72.2622,20.5469 71.7622,21.2969 Q71.2778,22.0469 71.2778,23.0781 L71.2778,24.1719 Q71.2778,25.4063 72.1685,26.2344 Q73.0591,27.0469 74.6528,27.0469 Q75.5903,27.0469 76.2466,26.7969 Q76.6372,26.6406 77.0591,26.2031 Q77.3247,25.9375 77.4653,25.8594 Q77.6216,25.7813 77.8247,25.7813 Q78.1528,25.7813 78.4028,26.0469 Q78.6685,26.2969 78.6685,26.6406 Q78.6685,26.9844 78.3247,27.3906 Q77.8247,27.9688 77.0278,28.2969 Q75.9497,28.75 74.6528,28.75 Q73.1372,28.75 71.9341,28.125 Q70.9497,27.625 70.2622,26.5625 Q69.5747,25.4844 69.5747,24.2031 L69.5747,23.0469 Q69.5747,21.7188 70.1841,20.5781 Q70.8091,19.4219 71.9028,18.8125 Q72.9966,18.1875 74.231,18.1875 Q74.9653,18.1875 75.606,18.3594 Q76.2622,18.5156 76.8091,18.875 Z " fill="#000000"/><text fill="#000000" font-family="sans-serif" font-size="14" lengthAdjust="spacing" textLength="147.082" x="94.5435" y="28.7285">SequentialListAlgorithm</text><line style="stroke:#181818;stroke-width:0.5;" x1="8" x2="295.6689" y1="39" y2="39"/><text fill="#000000" font-family="sans-serif" font-size="14" lengthAdjust="spacing" textLength="222.5371" x="13" y="79.1426">SequentialListAlgorithm [&#26159;&#21542;&#21512;&#29702;?]</text><line style="stroke:#181818;stroke-width:1;" x1="8" x2="123.8345" y1="55.8047" y2="55.8047"/><line style="stroke:#181818;stroke-width:1;" x1="8" x2="123.8345" y1="57.8047" y2="57.8047"/><text fill="#000000" font-family="sans-serif" font-size="14" lengthAdjust="spacing" textLength="56" x="123.8345" y="61.0332">&#32487;&#25215;&#23545;&#35937;</text><line style="stroke:#181818;stroke-width:1;" x1="179.8345" x2="295.6689" y1="55.8047" y2="55.8047"/><line style="stroke:#181818;stroke-width:1;" x1="179.8345" x2="295.6689" y1="57.8047" y2="57.8047"/><ellipse cx="18" cy="114.1328" fill="none" rx="3" ry="3" style="stroke:#038048;stroke-width:1;"/><text fill="#000000" font-family="sans-serif" font-size="14" lengthAdjust="spacing" textLength="151.6689" x="27" y="118.3613">arr: list [&#25509;&#21463;&#36716;&#25442;&#25968;&#32452;&#30340;]</text><ellipse cx="18" cy="131.7422" fill="none" rx="3" ry="3" style="stroke:#038048;stroke-width:1;"/><text fill="#000000" font-family="sans-serif" font-size="14" lengthAdjust="spacing" textLength="192.1855" x="27" y="135.9707">sqlist: SequentalList [&#25277;&#35937;&#25968;&#32452;]</text><line style="stroke:#181818;stroke-width:1;" x1="8" x2="137.8345" y1="95.0234" y2="95.0234"/><line style="stroke:#181818;stroke-width:1;" x1="8" x2="137.8345" y1="97.0234" y2="97.0234"/><text fill="#000000" font-family="sans-serif" font-size="14" lengthAdjust="spacing" textLength="28" x="137.8345" y="100.252">&#21442;&#25968;</text><line style="stroke:#181818;stroke-width:1;" x1="165.8345" x2="295.6689" y1="95.0234" y2="95.0234"/><line style="stroke:#181818;stroke-width:1;" x1="165.8345" x2="295.6689" y1="97.0234" y2="97.0234"/><ellipse cx="18" cy="170.9609" fill="#84BE84" rx="3" ry="3" style="stroke:#038048;stroke-width:1;"/><text fill="#000000" font-family="sans-serif" font-size="14" lengthAdjust="spacing" textLength="245" x="27" y="175.1895">swap() [&#21482;&#26159;&#20570;&#33410;&#28857;&#20132;&#25442;&#36923;&#36753;&#35774;&#23450;](&#21487;&#26080;)</text><ellipse cx="18" cy="188.5703" fill="#84BE84" rx="3" ry="3" style="stroke:#038048;stroke-width:1;"/><text fill="#000000" font-family="sans-serif" font-size="14" lengthAdjust="spacing" textLength="166.4756" x="27" y="192.7988">InitList_Sq()[&#21021;&#22987;&#21270;&#32447;&#24615;&#34920;]</text><ellipse cx="18" cy="206.1797" fill="#84BE84" rx="3" ry="3" style="stroke:#038048;stroke-width:1;"/><text fill="#000000" font-family="sans-serif" font-size="14" lengthAdjust="spacing" textLength="140.0342" x="27" y="210.4082">DestroyList_Sq()[&#38144;&#27585;]</text><ellipse cx="18" cy="223.7891" fill="#84BE84" rx="3" ry="3" style="stroke:#038048;stroke-width:1;"/><text fill="#000000" font-family="sans-serif" font-size="14" lengthAdjust="spacing" textLength="125.2549" x="27" y="228.0176">ListClear_Sq()[&#28165;&#31354;]</text><ellipse cx="18" cy="241.3984" fill="#84BE84" rx="3" ry="3" style="stroke:#038048;stroke-width:1;"/><text fill="#000000" font-family="sans-serif" font-size="14" lengthAdjust="spacing" textLength="126.0342" x="27" y="245.627">Listinsert_Sq()[&#25554;&#20837;]</text><ellipse cx="18" cy="259.0078" fill="#84BE84" rx="3" ry="3" style="stroke:#038048;stroke-width:1;"/><text fill="#000000" font-family="sans-serif" font-size="14" lengthAdjust="spacing" textLength="216.2686" x="27" y="263.2363">insert_node()[&#21333;&#32431;&#20026;&#25554;&#20837;&#33410;&#28857;&#35774;&#23450;]</text><ellipse cx="18" cy="276.6172" fill="#84BE84" rx="3" ry="3" style="stroke:#038048;stroke-width:1;"/><text fill="#000000" font-family="sans-serif" font-size="14" lengthAdjust="spacing" textLength="128.3721" x="27" y="280.8457">ListErase_Sq()[&#21024;&#38500;]</text><ellipse cx="18" cy="294.2266" fill="#84BE84" rx="3" ry="3" style="stroke:#038048;stroke-width:1;"/><text fill="#000000" font-family="sans-serif" font-size="14" lengthAdjust="spacing" textLength="147.0342" x="27" y="298.4551">ListFind_Sq()[&#26597;&#25214;&#23450;&#20301;]</text><ellipse cx="18" cy="311.8359" fill="#84BE84" rx="3" ry="3" style="stroke:#038048;stroke-width:1;"/><text fill="#000000" font-family="sans-serif" font-size="14" lengthAdjust="spacing" textLength="105.7861" x="27" y="316.0645">PrintElem()[&#36755;&#20986;]</text><ellipse cx="18" cy="329.4453" fill="#84BE84" rx="3" ry="3" style="stroke:#038048;stroke-width:1;"/><text fill="#000000" font-family="sans-serif" font-size="14" lengthAdjust="spacing" textLength="147.0342" x="27" y="333.6738">ListTraverse_Sq()[&#36941;&#21382;]</text><line style="stroke:#181818;stroke-width:1;" x1="8" x2="137.8345" y1="151.8516" y2="151.8516"/><line style="stroke:#181818;stroke-width:1;" x1="8" x2="137.8345" y1="153.8516" y2="153.8516"/><text fill="#000000" font-family="sans-serif" font-size="14" lengthAdjust="spacing" textLength="28" x="137.8345" y="157.0801">&#26041;&#27861;</text><line style="stroke:#181818;stroke-width:1;" x1="165.8345" x2="295.6689" y1="151.8516" y2="151.8516"/><line style="stroke:#181818;stroke-width:1;" x1="165.8345" x2="295.6689" y1="153.8516" y2="153.8516"/><text fill="#000000" font-family="sans-serif" font-size="14" lengthAdjust="spacing" textLength="273.7861" x="13" y="372.8926">&#24320;&#22987;&#20043;&#21069;,&#25105;&#20204;&#38656;&#35201;&#20877;&#37325;&#26032;&#24402;&#25972;&#19968;&#19979;manim&#20013;,</text><text fill="#000000" font-family="sans-serif" font-size="14" lengthAdjust="spacing" textLength="277.6689" x="13" y="390.502">&#32467;&#28857;&#25670;&#25918;/&#35843;&#25442;&#36923;&#36753;,&#36991;&#20813;&#28145;&#20837;&#32534;&#20889;&#30340;&#26102;&#20505;,&#21448;&#23384;</text><text fill="#000000" font-family="sans-serif" font-size="14" lengthAdjust="spacing" textLength="259.7793" x="13" y="408.1113">&#31561;&#19975;&#20107;&#20855;&#22791;&#21518;,&#20840;&#36523;&#24515;&#25237;&#20837;&#22312;&#31867;&#30340;&#32534;&#20889;&#20043;&#20013;.</text><line style="stroke:#181818;stroke-width:1;" x1="8" x2="123.8345" y1="349.5547" y2="349.5547"/><line style="stroke:#181818;stroke-width:1;" x1="8" x2="123.8345" y1="351.5547" y2="351.5547"/><text fill="#000000" font-family="sans-serif" font-size="14" lengthAdjust="spacing" textLength="56" x="123.8345" y="354.7832">&#21069;&#25552;&#25551;&#36848;</text><line style="stroke:#181818;stroke-width:1;" x1="179.8345" x2="295.6689" y1="349.5547" y2="349.5547"/><line style="stroke:#181818;stroke-width:1;" x1="179.8345" x2="295.6689" y1="351.5547" y2="351.5547"/></g><!--SRC=[TP9VRz9G6CRlzocQNK4aUh-46ADROkA52TuHOXhNQ9DIfAqQOqmA6_yjXMt083Dk1WRg62CQLze1NwRlUzfluUdQ8bxOo_Cyl_TvpddxGc1bcKamhCni9hZi6qvKU5PumilA0-5bHkALL-dD3niC_U9nOWsnieJ9p9cUnUEtX_z1c2GUJw1n3eqoQHJlfu81eEUnTHMWTnXMahOOWNBKNX-0td7c5wXzfHPYxPFUVYhmoLdFj1M6-LcKgSvf4TyT9c1xXZzRgmJv7Viw4cMIe7_t2kLwJZLFyZFRxDCSLxMSHTEvNC1bBnK1VOATqsW0FXPvnKjvdiX6eaaeVuPX3JwrYRb4TUYSZS9gZpXPaJBl_rhT8nKdkL3spXyA72lv8Xe5yirS5tbHvgG0HVq02eDG3HGniyjv3RGMCIUsOVec_nf1zRLnsn8hSs7dKxVRNnTtU74tIFeom8h7sdCjT3oLU57P5hWqrPt58PJ-wVbCOjzoKZZRpMbGBwwsMj5GRw2kEyjmjt2ZqWUpPpMgnR3SjAqBzqHrpdDGrDoIXkqhc1zWwvTjgBPHIxCYdxQDSUoM9TOXlHisYtYqkETSxQqs5NDpIoXeU3sbBq1ksb3iqfy4Exz1xSP0ByFus1ymhjX6oJPhKBY6VWaQzHWKHexv0vPxM6rH64v6P6fHs9z2UzBqkniV_m00]--></g></svg>