<?xml version="1.0" standalone="no"?><!DOCTYPE svg PUBLIC "-//W3C//DTD SVG 1.1//EN" "http://www.w3.org/Graphics/SVG/1.1/DTD/svg11.dtd"><svg t="1755087157631" class="icon" viewBox="0 0 1024 1024" version="1.1" xmlns="http://www.w3.org/2000/svg" p-id="1513" xmlns:xlink="http://www.w3.org/1999/xlink" width="200" height="200"><path d="M303.11 834.5a224.5 69.5 0 1 0 449 0 224.5 69.5 0 1 0-449 0Z" fill="#FFEB99" p-id="1514"></path><path d="M527.61 912c-60.75 0-117.96-7.36-161.11-20.71-46.7-14.46-71.39-34.09-71.39-56.79s24.69-42.33 71.39-56.79C409.65 764.35 466.87 757 527.61 757s117.96 7.36 161.11 20.71c46.7 14.46 71.39 34.09 71.39 56.79s-24.69 42.33-71.39 56.79C645.57 904.65 588.35 912 527.61 912z m0-139c-59.19 0-114.72 7.1-156.38 20-37.65 11.65-60.12 27.17-60.12 41.5s22.48 29.85 60.12 41.5c41.66 12.9 97.19 20 156.38 20s114.72-7.1 156.38-20c37.65-11.65 60.12-27.17 60.12-41.5s-22.48-29.85-60.12-41.5c-41.66-12.9-97.19-20-156.38-20z" fill="#510C0C" p-id="1515"></path><path d="M567.11 805s-7.67 17-38.67 17c-29 0-40.33-17-40.33-17V528h79v277z" fill="#FFEB99" p-id="1516"></path><path d="M528.44 830c-32.9 0-46.43-19.72-46.99-20.56l-1.34-2.02V520h95v286.72l-0.71 1.57c-0.4 0.89-10.2 21.71-45.96 21.71z m-32.33-27.85c3.35 3.57 13.2 11.85 32.33 11.85 20.41 0 28.35-8.08 30.67-11.23V536h-63v266.15z" fill="#510C0C" p-id="1517"></path><path d="M527.04 582c-213 0-284.76-53.02-292.26-60.88-11.32-11.87-14.25-29.47-8.1-44.67L350.2 171h364l117.18 311.3c6.52 26.28-91.35 99.7-304.35 99.7z" fill="#D0F1F7" p-id="1518"></path><path d="M527.61 534.95c-76.99 0-149.47-9.31-204.1-26.22-27.02-8.36-48.35-18.19-63.4-29.21-16.92-12.39-25.51-26-25.51-40.46 0-4.14 3.36-7.5 7.5-7.5s7.5 3.36 7.5 7.5c0 19.46 29.29 40.15 78.34 55.33 53.23 16.48 124.13 25.55 199.66 25.55s146.44-9.07 199.66-25.55c49.05-15.19 78.34-35.87 78.34-55.33 0-4.14 3.36-7.5 7.5-7.5s7.5 3.36 7.5 7.5c0 14.46-8.58 28.07-25.51 40.46-15.05 11.02-36.38 20.84-63.4 29.21-54.62 16.91-127.11 26.22-204.1 26.22z" fill="#FFFFFF" p-id="1519"></path><path d="M527.78 591c-90.83 0-166.91-9.39-226.13-27.92-54.54-17.07-71.92-34.84-72.64-35.59-13.35-14-17.17-34.93-9.74-53.3L343.1 168c1.22-3.02 4.16-5 7.42-5h364.89c3.33 0 6.31 2.06 7.49 5.18l117.47 312.06c0.11 0.29 0.2 0.59 0.28 0.89 1.25 5.03 0.9 13.38-7.83 24.54-7.53 9.63-32.03 34.35-96.67 55.91C678.46 580.82 606.41 591 527.8 591zM355.91 179l-121.8 301.19c-5.08 12.56-2.53 26.79 6.49 36.26 3.79 3.98 24.02 18.27 65.83 31.36C364.1 565.85 438.57 575 527.78 575c169.09 0 267.52-47.36 292.42-79.19 4.25-5.43 5.12-9.04 4.95-10.54L709.86 179H355.9z" fill="#510C0C" p-id="1520"></path><path d="M349.49 171a184.12 57 0 1 0 368.24 0 184.12 57 0 1 0-368.24 0Z" fill="#D0F1F7" p-id="1521"></path><path d="M533.61 236c-49.96 0-97.04-6.06-132.56-17.05-38.96-12.06-59.56-28.64-59.56-47.95s20.6-35.88 59.56-47.95c35.52-11 82.6-17.05 132.56-17.05s97.04 6.06 132.56 17.05c38.96 12.06 59.56 28.64 59.56 47.95s-20.6 35.88-59.56 47.95c-35.52 11-82.6 17.05-132.56 17.05z m0-114c-48.4 0-93.79 5.8-127.82 16.34-23.35 7.23-48.29 19.6-48.29 32.66s24.95 25.43 48.29 32.66C439.82 214.19 485.22 220 533.61 220s93.79-5.8 127.82-16.34c23.35-7.23 48.29-19.6 48.29-32.66s-24.95-25.43-48.29-32.66C627.4 127.81 582.01 122 533.61 122z" fill="#510C0C" p-id="1522"></path></svg>