<?xml version="1.0" standalone="no"?><!DOCTYPE svg PUBLIC "-//W3C//DTD SVG 1.1//EN" "http://www.w3.org/Graphics/SVG/1.1/DTD/svg11.dtd"><svg t="1755240648759" class="icon" viewBox="0 0 1024 1024" version="1.1" xmlns="http://www.w3.org/2000/svg" p-id="4948" xmlns:xlink="http://www.w3.org/1999/xlink" width="200" height="200"><path d="M727.726605 682.666667V766.687179c5.251282 18.379487 10.502564 36.758974 10.502564 57.764103C738.229169 905.846154 677.839426 971.487179 601.695836 971.487179c-76.14359 0-136.533333-65.641026-136.533333-147.035897 0-10.502564 2.625641-21.005128 2.625641-31.507692-15.753846 0-31.507692-7.876923-44.635898-21.005128-5.251282 15.753846-7.876923 34.133333-7.876923 52.51282 0 110.276923 84.020513 199.548718 183.794872 199.548718 102.4 0 183.794872-89.271795 183.794872-196.923077 2.625641-55.138462-18.379487-107.651282-55.138462-144.410256m-561.887179-351.835898c0-154.912821 0-278.317949 231.05641-278.317948 97.148718 0 157.538462 23.630769 202.174359 70.892307l241.558974 254.68718c21.005128 23.630769 15.753846 52.512821-2.625641 70.892307-15.753846 18.379487-49.887179 21.005128-65.641025 2.625641 0 0-42.010256-44.635897-78.769231-84.020512l-52.512821-55.138462V800.820513c0 26.25641-18.379487 44.635897-44.635897 44.635897-23.630769 0-39.384615-21.005128-39.384616-44.635897l0-315.076923c0-13.128205-10.502564-23.630769-23.630769-26.256411-13.128205 0-23.630769 10.502564-23.630769 26.256411l0 133.907692c0 26.25641-15.753846 44.635897-39.384615 44.635897 0 0-42.010256 0-42.010257-44.635897V446.358974c0-13.128205-10.502564-23.630769-23.630769-26.25641-13.128205 0-23.630769 10.502564-23.630769 26.25641l0 123.405129c0 26.25641-15.753846 44.635897-39.384616 44.635897 0 0-42.010256-2.625641-42.010256-44.635897l0-152.28718c0-13.128205-10.502564-23.630769-23.630769-26.25641-13.128205 0-23.630769 10.502564-23.63077 26.25641l0 105.025641c0 26.25641-18.379487 44.635897-42.010256 44.635898 0 0-42.010256 2.625641-42.010256-44.635898l-2.625641-191.671795m39.384615 291.446154l2.625641 0c15.753846 0 31.507692-5.251282 44.635897-15.753846 13.128205 36.758974 44.635897 65.641026 84.020513 65.641026 15.753846 0 34.133333-5.251282 49.88718-13.128206 13.128205 36.758974 44.635897 65.641026 84.020513 65.641026 15.753846 0 31.507692-2.625641 42.010256-10.502564L512.424041 808.697436c0 55.138462 36.758974 97.148718 86.646154 97.148718S690.967631 863.835897 690.967631 808.697436l0-375.466667 55.138461 60.389744c36.758974 36.758974 97.148718 31.507692 128.656411 0C906.270195 462.112821 924.649682 396.471795 882.639426 349.210256L627.952246 78.769231c-5.251282-5.251282-10.502564-10.502564-15.753846-13.128205C564.936862 26.25641 512.424041 0 402.147118 0 142.208656 0 118.577887 147.035897 118.577887 330.830769V525.128205c0 52.512821 36.758974 97.148718 86.646154 97.148718" fill="#ffffff" p-id="4949"></path></svg>