<?xml version="1.0" standalone="no"?><!DOCTYPE svg PUBLIC "-//W3C//DTD SVG 1.1//EN" "http://www.w3.org/Graphics/SVG/1.1/DTD/svg11.dtd"><svg t="1755087006061" class="icon" viewBox="0 0 1181 1024" version="1.1" xmlns="http://www.w3.org/2000/svg" p-id="4430" xmlns:xlink="http://www.w3.org/1999/xlink" width="230.6640625" height="200"><path d="M281.503902 115.554462c0 31.901538 25.206154 57.737846 56.32 57.737846A57.028923 57.028923 0 0 0 394.065132 115.554462V57.737846A57.028923 57.028923 0 0 0 337.823902 0a57.028923 57.028923 0 0 0-56.32 57.737846v57.816616z m-56.241231 693.16923c0 30.562462 23.236923 55.847385 53.011692 57.659077a56.713846 56.713846 0 0 0 59.076923-50.884923l0.472616-6.774154v-57.737846a57.107692 57.107692 0 0 0-53.011693-57.580308 56.713846 56.713846 0 0 0-59.076923 50.806154l-0.472615 6.774154v57.737846zM16.760517 156.356923l56.241231 57.816615a55.217231 55.217231 0 0 0 78.926769-0.787692 58.840615 58.840615 0 0 0 0.630154-80.896L96.31744 74.673231a55.217231 55.217231 0 0 0-78.848 0.787692 58.840615 58.840615 0 0 0-0.708923 80.896z m0 635.510154a55.217231 55.217231 0 0 0 79.556923 0l56.241231-57.816615a58.761846 58.761846 0 0 0 15.36-56.162462 57.028923 57.028923 0 0 0-40.172308-41.275077 55.296 55.296 0 0 0-54.744615 15.753846l-56.241231 57.816616a58.840615 58.840615 0 0 0 0 81.683692z" fill="#4FCAFF" opacity=".6" p-id="4431"></path><path d="M135.386978 410.860308c0 66.402462 51.751385 121.383385 118.311385 125.715692l8.270769 0.315077h233.156923l30.72 274.116923a202.121846 202.121846 0 0 0 190.936616 179.121231l10.24 0.236307h15.990154c218.820923 0 398.099692-172.898462 404.873846-390.537846l0.236307-12.603077v-33.870769c0-147.613538-63.803077-279.236923-182.350769-338.865231-118.468923-59.628308-238.670769-75.854769-299.008-134.695384-60.258462-58.840615-115.633231-34.894769-133.12 7.404307-21.582769 52.460308-25.6 102.478769 0.630154 153.915077a220.553846 220.553846 0 0 0 20.952615 33.004308l8.664616 10.791385H261.969132c-33.555692 0-65.772308 13.312-89.481846 36.942769-23.788308 23.630769-37.100308 55.611077-37.100308 89.009231z" fill="#4FCAFF" opacity=".2" p-id="4432"></path><path d="M244.718671 580.056615l9.688615 0.315077h185.974154l25.363692 224.177231c13.075692 115.633231 106.180923 205.824 223.468308 218.112l14.178462 1.102769 11.421538 0.236308h15.753846c243.633231 0 443.313231-190.306462 450.953846-430.788923L1181.75744 580.135385v-33.240616c0-166.596923-75.933538-309.956923-208.108308-375.729231l-6.852923-3.387076-3.938461-1.890462a986.978462 986.978462 0 0 0-87.355077-36.155077c-17.801846-6.459077-74.200615-26.072615-78.375385-27.569231-57.501538-20.48-87.748923-35.446154-106.968615-53.956923-77.981538-75.224615-178.648615-58.683077-213.070769 23.867077-21.819077 52.224-27.490462 101.454769-14.493539 149.267692l4.253539 13.39077-212.440616 0.078769c-41.275077 0-81.132308 14.336-112.561231 40.251077l-11.421538 10.24C97.498978 317.755077 78.988209 361.708308 78.988209 407.552c0 91.136 71.68 166.518154 165.730462 172.504615z m-43.559385-224.492307a75.933538 75.933538 0 0 1 53.248-21.661539H657.154363l-64.590769-80.344615-7.876923-9.767385a166.045538 166.045538 0 0 1-16.068923-24.812307c-17.250462-33.398154-16.699077-66.402462 1.102769-109.174154 6.616615-15.753846 21.819077-18.274462 50.412308 9.294769 32.610462 31.428923 72.467692 51.121231 142.966153 76.248615 4.883692 1.732923 60.731077 21.188923 77.587693 27.332923a889.934769 889.934769 0 0 1 87.906461 37.021539C1024.218978 307.2 1081.484209 415.428923 1081.484209 546.894769v32.452923l-0.157538 11.500308c-5.907692 186.131692-161.161846 334.060308-350.680616 334.060308h-14.572307l-8.900923-0.157539a149.267692 149.267692 0 0 1-141.784616-131.150769L535.062055 525.312l-4.962461-44.032h-274.116923l-6.537846-0.157538a74.358154 74.358154 0 0 1-70.183385-73.491693c0-19.534769 7.876923-38.281846 21.897846-52.066461z" fill="#4FCAFF" p-id="4433"></path></svg>
