<svg xmlns="http://www.w3.org/2000/svg" xmlns:xlink="http://www.w3.org/1999/xlink" contentStyleType="text/css" data-diagram-type="CLASS" height="1002px" preserveAspectRatio="none" style="width:506px;height:1002px;background:#FFFFFF;" version="1.1" viewBox="0 0 506 1002" width="506px" zoomAndPan="magnify"><defs/><g><!--class S--><g class="entity" data-entity="S" data-source-line="1" data-uid="ent0002" id="entity_S"><rect fill="#F1F1F1" height="224.0938" rx="2.5" ry="2.5" style="stroke:#181818;stroke-width:0.5;" width="185.5371" x="7" y="203"/><ellipse cx="76.0635" cy="219" fill="#ADD1B2" rx="11" ry="11" style="stroke:#181818;stroke-width:1;"/><path d="M78.8291,214.875 Q78.9854,214.6563 79.1729,214.5469 Q79.3604,214.4375 79.5791,214.4375 Q79.9541,214.4375 80.1885,214.7031 Q80.4229,214.9531 80.4229,215.5625 L80.4229,217.0156 Q80.4229,217.625 80.1885,217.8906 Q79.9541,218.1563 79.5791,218.1563 Q79.2354,218.1563 79.0322,217.9531 Q78.8291,217.7656 78.7197,217.25 Q78.6729,216.8906 78.4854,216.7031 Q78.1572,216.3281 77.5479,216.1094 Q76.9385,215.8906 76.3135,215.8906 Q75.5479,215.8906 74.9072,216.2188 Q74.2822,216.5469 73.7822,217.2969 Q73.2979,218.0469 73.2979,219.0781 L73.2979,220.1719 Q73.2979,221.4063 74.1885,222.2344 Q75.0791,223.0469 76.6729,223.0469 Q77.6104,223.0469 78.2666,222.7969 Q78.6572,222.6406 79.0791,222.2031 Q79.3447,221.9375 79.4854,221.8594 Q79.6416,221.7813 79.8447,221.7813 Q80.1729,221.7813 80.4229,222.0469 Q80.6885,222.2969 80.6885,222.6406 Q80.6885,222.9844 80.3447,223.3906 Q79.8447,223.9688 79.0479,224.2969 Q77.9697,224.75 76.6729,224.75 Q75.1572,224.75 73.9541,224.125 Q72.9697,223.625 72.2822,222.5625 Q71.5947,221.4844 71.5947,220.2031 L71.5947,219.0469 Q71.5947,217.7188 72.2041,216.5781 Q72.8291,215.4219 73.9229,214.8125 Q75.0166,214.1875 76.251,214.1875 Q76.9854,214.1875 77.626,214.3594 Q78.2822,214.5156 78.8291,214.875 Z " fill="#000000"/><text fill="#000000" font-family="sans-serif" font-size="14" lengthAdjust="spacing" textLength="38.9102" x="96.5635" y="224.7285">SqList</text><line style="stroke:#181818;stroke-width:0.5;" x1="8" x2="191.5371" y1="235" y2="235"/><ellipse cx="18" cy="270.9141" fill="none" rx="3" ry="3" style="stroke:#038048;stroke-width:1;"/><text fill="#000000" font-family="sans-serif" font-size="14" lengthAdjust="spacing" textLength="47.4619" x="27" y="275.1426">size: int</text><ellipse cx="18" cy="288.5234" fill="none" rx="3" ry="3" style="stroke:#038048;stroke-width:1;"/><text fill="#000000" font-family="sans-serif" font-size="14" lengthAdjust="spacing" textLength="56.7861" x="27" y="292.752">sqlist: list</text><line style="stroke:#181818;stroke-width:1;" x1="8" x2="85.7686" y1="251.8047" y2="251.8047"/><line style="stroke:#181818;stroke-width:1;" x1="8" x2="85.7686" y1="253.8047" y2="253.8047"/><text fill="#000000" font-family="sans-serif" font-size="14" lengthAdjust="spacing" textLength="28" x="85.7686" y="257.0332">&#23646;&#24615;</text><line style="stroke:#181818;stroke-width:1;" x1="113.7686" x2="191.5371" y1="251.8047" y2="251.8047"/><line style="stroke:#181818;stroke-width:1;" x1="113.7686" x2="191.5371" y1="253.8047" y2="253.8047"/><text fill="#000000" font-family="sans-serif" font-size="14" lengthAdjust="spacing" textLength="120.5518" x="27" y="331.9707">(&#36825;&#37324;&#20808;&#19981;&#28041;&#21450;,&#21518;&#32493;</text><text fill="#000000" font-family="sans-serif" font-size="14" lengthAdjust="spacing" textLength="126" x="27" y="349.5801">&#38656;&#35201;&#30340;&#26102;&#20505;&#20877;&#26469;&#20889;&#22240;</text><text fill="#000000" font-family="sans-serif" font-size="14" lengthAdjust="spacing" textLength="126" x="27" y="367.1895">&#20026;&#19981;&#19968;&#23450;&#38750;&#24471;&#20840;&#37117;&#21407;</text><text fill="#000000" font-family="sans-serif" font-size="14" lengthAdjust="spacing" textLength="115.8896" x="27" y="384.7988">&#21407;&#26412;&#26412;&#22320;&#23384;&#22312;,&#26377;&#38656;</text><text fill="#000000" font-family="sans-serif" font-size="14" lengthAdjust="spacing" textLength="144.6621" x="27" y="402.4082">&#35201;&#30340;&#26102;&#20505;&#20877;&#26469;&#35774;&#35745;&#23601;&#22909;)</text><ellipse cx="18" cy="415.7891" fill="#84BE84" rx="3" ry="3" style="stroke:#038048;stroke-width:1;"/><text fill="#000000" font-family="sans-serif" font-size="14" lengthAdjust="spacing" textLength="159.5371" x="27" y="420.0176">update_grps(scene, grps)</text><line style="stroke:#181818;stroke-width:1;" x1="8" x2="85.7686" y1="308.6328" y2="308.6328"/><line style="stroke:#181818;stroke-width:1;" x1="8" x2="85.7686" y1="310.6328" y2="310.6328"/><text fill="#000000" font-family="sans-serif" font-size="14" lengthAdjust="spacing" textLength="28" x="85.7686" y="313.8613">&#26041;&#27861;</text><line style="stroke:#181818;stroke-width:1;" x1="113.7686" x2="191.5371" y1="308.6328" y2="308.6328"/><line style="stroke:#181818;stroke-width:1;" x1="113.7686" x2="191.5371" y1="310.6328" y2="310.6328"/></g><!--class p--><g class="entity" data-entity="p" data-source-line="14" data-uid="ent0003" id="entity_p"><rect fill="#F1F1F1" height="616.2813" rx="2.5" ry="2.5" style="stroke:#181818;stroke-width:0.5;" width="271.7793" x="228" y="7"/><ellipse cx="345.6396" cy="23" fill="#ADD1B2" rx="11" ry="11" style="stroke:#181818;stroke-width:1;"/><path d="M348.4053,18.875 Q348.5615,18.6563 348.749,18.5469 Q348.9365,18.4375 349.1553,18.4375 Q349.5303,18.4375 349.7646,18.7031 Q349.999,18.9531 349.999,19.5625 L349.999,21.0156 Q349.999,21.625 349.7646,21.8906 Q349.5303,22.1563 349.1553,22.1563 Q348.8115,22.1563 348.6084,21.9531 Q348.4053,21.7656 348.2959,21.25 Q348.249,20.8906 348.0615,20.7031 Q347.7334,20.3281 347.124,20.1094 Q346.5146,19.8906 345.8896,19.8906 Q345.124,19.8906 344.4834,20.2188 Q343.8584,20.5469 343.3584,21.2969 Q342.874,22.0469 342.874,23.0781 L342.874,24.1719 Q342.874,25.4063 343.7646,26.2344 Q344.6553,27.0469 346.249,27.0469 Q347.1865,27.0469 347.8428,26.7969 Q348.2334,26.6406 348.6553,26.2031 Q348.9209,25.9375 349.0615,25.8594 Q349.2178,25.7813 349.4209,25.7813 Q349.749,25.7813 349.999,26.0469 Q350.2646,26.2969 350.2646,26.6406 Q350.2646,26.9844 349.9209,27.3906 Q349.4209,27.9688 348.624,28.2969 Q347.5459,28.75 346.249,28.75 Q344.7334,28.75 343.5303,28.125 Q342.5459,27.625 341.8584,26.5625 Q341.1709,25.4844 341.1709,24.2031 L341.1709,23.0469 Q341.1709,21.7188 341.7803,20.5781 Q342.4053,19.4219 343.499,18.8125 Q344.5928,18.1875 345.8271,18.1875 Q346.5615,18.1875 347.2021,18.3594 Q347.8584,18.5156 348.4053,18.875 Z " fill="#000000"/><text fill="#000000" font-family="sans-serif" font-size="14" lengthAdjust="spacing" textLength="28" x="366.1396" y="28.7285">&#30446;&#30340;</text><line style="stroke:#181818;stroke-width:0.5;" x1="229" x2="498.7793" y1="39" y2="39"/><line style="stroke:#181818;stroke-width:1;" x1="229" x2="498.7793" y1="47" y2="47"/><line style="stroke:#181818;stroke-width:1;" x1="229" x2="498.7793" y1="49" y2="49"/><text fill="#000000" font-family="sans-serif" font-size="14" lengthAdjust="spacing" textLength="185.8896" x="234" y="65.5332">&#23450;&#20301;&#27809;&#26377;&#25630;&#28165;&#21834;,&#36825;&#37324;&#37325;&#30003;&#19968;&#19979;</text><text fill="#000000" font-family="sans-serif" font-size="14" lengthAdjust="spacing" textLength="105.7793" x="234" y="83.1426">&#30446;&#30340;/&#20316;&#29992;&#26159;&#20160;&#20040;.</text><line style="stroke:#181818;stroke-width:1;" x1="229" x2="498.7793" y1="90.2188" y2="90.2188"/><line style="stroke:#181818;stroke-width:1;" x1="229" x2="498.7793" y1="92.2188" y2="92.2188"/><text fill="#000000" font-family="sans-serif" font-size="14" lengthAdjust="spacing" textLength="192.1377" x="234" y="108.752">&#36825;&#20010;&#31867;,&#26159;&#20026;&#20102;&#21516;&#27493;&#26356;&#26032;VGroup</text><text fill="#000000" font-family="sans-serif" font-size="14" lengthAdjust="spacing" textLength="202.2822" x="234" y="126.3613">&#20013;SingleNode&#30340;&#25490;&#21015;&#26041;&#24335;.manim</text><text fill="#000000" font-family="sans-serif" font-size="14" lengthAdjust="spacing" textLength="188.248" x="234" y="143.9707">&#20013;,self.add()&#24635;&#20250;&#26681;&#25454;&#26368;&#21518;&#19968;&#27425;</text><text fill="#000000" font-family="sans-serif" font-size="14" lengthAdjust="spacing" textLength="203.7793" x="234" y="161.5801">&#25805;&#20316;&#32780;&#26174;&#31034;,&#21069;&#38754;&#26080;&#35770;&#22810;&#23569;&#27425;&#21464;&#21270;,</text><text fill="#000000" font-family="sans-serif" font-size="14" lengthAdjust="spacing" textLength="203.7793" x="234" y="179.1895">&#37117;&#36215;&#19981;&#21040;&#20316;&#29992;,&#32780;&#36825;&#20040;&#31867;,&#23601;&#26159;&#20026;&#20102;</text><text fill="#000000" font-family="sans-serif" font-size="14" lengthAdjust="spacing" textLength="101.8896" x="234" y="196.7988">&#35299;&#20915;&#36825;&#31181;&#24773;&#20917;&#30340;.</text><line style="stroke:#181818;stroke-width:1;" x1="229" x2="498.7793" y1="203.875" y2="203.875"/><line style="stroke:#181818;stroke-width:1;" x1="229" x2="498.7793" y1="205.875" y2="205.875"/><text fill="#000000" font-family="sans-serif" font-size="14" lengthAdjust="spacing" textLength="210.0273" x="234" y="222.4082">&#36825;&#20010;&#31867;&#20013;,&#26377;&#21644;VGroup&#30456;&#21516;&#30340;&#25968;&#25454;,</text><text fill="#000000" font-family="sans-serif" font-size="14" lengthAdjust="spacing" textLength="189.7793" x="234" y="240.0176">&#20250;&#21516;&#27493;&#21464;&#21270;.&#26368;&#21518;&#30340;&#20316;&#29992;&#26159;,&#36820;&#22238;</text><text fill="#000000" font-family="sans-serif" font-size="14" lengthAdjust="spacing" textLength="227.917" x="234" y="257.627">&#31639;&#27861;&#25805;&#20316;&#21518;&#30340;VGroup.&#27880;&#24847;,&#36825;&#24456;&#20851;&#38190;,</text><text fill="#000000" font-family="sans-serif" font-size="14" lengthAdjust="spacing" textLength="217.7793" x="234" y="275.2363">&#22240;&#20026;,&#36825;&#37324;&#24182;&#19981;&#26159;&#29983;&#25104;&#21160;&#30011;&#30340;.&#21018;&#25165;&#24819;</text><text fill="#000000" font-family="sans-serif" font-size="14" lengthAdjust="spacing" textLength="210.0479" x="234" y="292.8457">&#20102;,python&#20013;&#21015;&#34920;&#26377;insert,&#21487;&#26159;&#22914;&#20309;</text><text fill="#000000" font-family="sans-serif" font-size="14" lengthAdjust="spacing" textLength="221.6758" x="234" y="310.4551">&#20135;&#29983;&#21160;&#30011;&#21602;?&#19981;&#29992;&#20851;&#24515;,&#22240;&#20026;&#36825;&#37324;&#21482;&#26159;</text><text fill="#000000" font-family="sans-serif" font-size="14" lengthAdjust="spacing" textLength="202.2617" x="234" y="328.0645">&#36820;&#22238;insert&#21518;&#30340;VGroup,&#20165;&#27492;&#32780;&#24050;.</text><line style="stroke:#181818;stroke-width:1;" x1="229" x2="498.7793" y1="335.1406" y2="335.1406"/><line style="stroke:#181818;stroke-width:1;" x1="229" x2="498.7793" y1="337.1406" y2="337.1406"/><text fill="#000000" font-family="sans-serif" font-size="14" lengthAdjust="spacing" textLength="224.0273" x="234" y="353.6738">&#25152;&#20197;,&#22312;&#23545;&#24212;&#30340;&#31867;&#20013;,&#20250;&#23545;&#21021;&#22987;VGroup</text><text fill="#000000" font-family="sans-serif" font-size="14" lengthAdjust="spacing" textLength="217.7793" x="234" y="371.2832">&#36827;&#34892;&#31639;&#27861;&#21160;&#30011;,&#24403;&#36827;&#34892;&#31532;&#19968;&#27493;&#21518;,&#30001;&#20110;</text><text fill="#000000" font-family="sans-serif" font-size="14" lengthAdjust="spacing" textLength="234.1377" x="234" y="388.8926">VGroup&#26080;&#27861;&#21516;&#27493;&#26356;&#26032;&#32780;&#21463;&#38480;,&#27492;&#26102;&#21487;&#20197;</text><text fill="#000000" font-family="sans-serif" font-size="14" lengthAdjust="spacing" textLength="238.0273" x="234" y="406.502">&#36873;&#25321;&#36825;&#20010;&#31867;,&#23558;VGroup&#26356;&#26032;,&#32780;&#21518;&#20877;&#36827;&#34892;</text><text fill="#000000" font-family="sans-serif" font-size="14" lengthAdjust="spacing" textLength="87.8896" x="234" y="424.1113">&#25509;&#19979;&#26469;&#30340;&#21160;&#30011;.</text><line style="stroke:#181818;stroke-width:1;" x1="229" x2="498.7793" y1="431.1875" y2="431.1875"/><line style="stroke:#181818;stroke-width:1;" x1="229" x2="498.7793" y1="433.1875" y2="433.1875"/><text fill="#000000" font-family="sans-serif" font-size="14" lengthAdjust="spacing" textLength="229.4482" x="234" y="449.7207">&#21487;&#33021;&#36824;&#20250;&#32771;&#34385;,&#32447;&#24615;&#34920;/&#38142;&#34920;/&#38431;&#21015;/&#26632;&#31561;,</text><text fill="#000000" font-family="sans-serif" font-size="14" lengthAdjust="spacing" textLength="231.7793" x="234" y="467.3301">&#25805;&#32437;&#26041;&#24335;&#37117;&#19981;&#19968;&#26679;&#21834;,&#19981;&#20855;&#26377;&#19968;&#33324;&#24615;.&#36825;</text><text fill="#000000" font-family="sans-serif" font-size="14" lengthAdjust="spacing" textLength="241.8896" x="234" y="484.9395">&#26159;&#24517;&#39035;&#30340;,&#22240;&#20026;&#21069;&#38754;&#30340;&#25968;&#25454;&#32467;&#26500;&#37117;&#26159;&#20855;&#26377;</text><text fill="#000000" font-family="sans-serif" font-size="14" lengthAdjust="spacing" textLength="231.7793" x="234" y="502.5488">&#33258;&#24049;&#30340;&#29305;&#24615;&#30340;,&#30456;&#21516;&#25805;&#20316;,&#23545;&#24212;&#20570;&#27861;&#32943;&#23450;</text><text fill="#000000" font-family="sans-serif" font-size="14" lengthAdjust="spacing" textLength="252.0273" x="234" y="520.1582">&#19981;&#30456;&#21516;.&#25105;&#20204;&#21482;&#38656;&#35201;&#32771;&#34385;,&#25805;&#20316;&#21518;&#30340;VGroup</text><text fill="#000000" font-family="sans-serif" font-size="14" lengthAdjust="spacing" textLength="241.8896" x="234" y="537.7676">&#23545;&#20854;&#21518;&#32493;&#21160;&#30011;&#29983;&#25104;&#26159;&#21542;&#26377;&#24110;&#21161;&#21363;&#21487;,&#24182;&#19981;</text><text fill="#000000" font-family="sans-serif" font-size="14" lengthAdjust="spacing" textLength="157.8896" x="234" y="555.377">&#19968;&#23450;&#38750;&#24471;&#29992;&#36825;&#31181;&#26041;&#24335;&#29983;&#25104;.</text><line style="stroke:#181818;stroke-width:1;" x1="229" x2="498.7793" y1="562.4531" y2="562.4531"/><line style="stroke:#181818;stroke-width:1;" x1="229" x2="498.7793" y1="564.4531" y2="564.4531"/><text fill="#000000" font-family="sans-serif" font-size="14" lengthAdjust="spacing" textLength="259.7793" x="234" y="580.9863">&#37027;&#36825;&#20040;&#26469;&#30475;,&#26041;&#27861;&#19968;&#20108;&#24212;&#35813;&#26159;&#20849;&#23384;&#30340;.&#29978;&#33267;&#21487;</text><text fill="#000000" font-family="sans-serif" font-size="14" lengthAdjust="spacing" textLength="259.7793" x="234" y="598.5957">&#20197;&#26041;&#27861;&#20108;&#20316;&#20026;&#29238;&#31867;,&#26041;&#27861;&#19968;&#32487;&#25215;&#26041;&#27861;&#20108;,&#20063;&#26159;</text><text fill="#000000" font-family="sans-serif" font-size="14" lengthAdjust="spacing" textLength="249.6689" x="234" y="616.2051">&#21487;&#20197;&#30340;.&#36825;&#31181;&#24605;&#24819;&#19981;&#38169;.&#37027;&#20040;&#23601;&#20808;&#36825;&#20040;&#24178;&#21543;.</text></g><!--class C--><g class="entity" data-entity="C" data-source-line="52" data-uid="ent0004" id="entity_C"><rect fill="#F1F1F1" height="312.1406" rx="2.5" ry="2.5" style="stroke:#181818;stroke-width:0.5;" width="180.0068" x="10" y="683"/><ellipse cx="81.7534" cy="699" fill="#ADD1B2" rx="11" ry="11" style="stroke:#181818;stroke-width:1;"/><path d="M84.519,694.875 Q84.6753,694.6563 84.8628,694.5469 Q85.0503,694.4375 85.269,694.4375 Q85.644,694.4375 85.8784,694.7031 Q86.1128,694.9531 86.1128,695.5625 L86.1128,697.0156 Q86.1128,697.625 85.8784,697.8906 Q85.644,698.1563 85.269,698.1563 Q84.9253,698.1563 84.7222,697.9531 Q84.519,697.7656 84.4097,697.25 Q84.3628,696.8906 84.1753,696.7031 Q83.8472,696.3281 83.2378,696.1094 Q82.6284,695.8906 82.0034,695.8906 Q81.2378,695.8906 80.5972,696.2188 Q79.9722,696.5469 79.4722,697.2969 Q78.9878,698.0469 78.9878,699.0781 L78.9878,700.1719 Q78.9878,701.4063 79.8784,702.2344 Q80.769,703.0469 82.3628,703.0469 Q83.3003,703.0469 83.9565,702.7969 Q84.3472,702.6406 84.769,702.2031 Q85.0347,701.9375 85.1753,701.8594 Q85.3315,701.7813 85.5347,701.7813 Q85.8628,701.7813 86.1128,702.0469 Q86.3784,702.2969 86.3784,702.6406 Q86.3784,702.9844 86.0347,703.3906 Q85.5347,703.9688 84.7378,704.2969 Q83.6597,704.75 82.3628,704.75 Q80.8472,704.75 79.644,704.125 Q78.6597,703.625 77.9722,702.5625 Q77.2847,701.4844 77.2847,700.2031 L77.2847,699.0469 Q77.2847,697.7188 77.894,696.5781 Q78.519,695.4219 79.6128,694.8125 Q80.7065,694.1875 81.9409,694.1875 Q82.6753,694.1875 83.3159,694.3594 Q83.9722,694.5156 84.519,694.875 Z " fill="#000000"/><text fill="#000000" font-family="sans-serif" font-size="14" lengthAdjust="spacing" textLength="28" x="102.2534" y="704.7285">&#35774;&#35745;</text><line style="stroke:#181818;stroke-width:0.5;" x1="11" x2="189.0068" y1="715" y2="715"/><line style="stroke:#181818;stroke-width:1;" x1="11" x2="189.0068" y1="723" y2="723"/><line style="stroke:#181818;stroke-width:1;" x1="11" x2="189.0068" y1="725" y2="725"/><text fill="#000000" font-family="sans-serif" font-size="14" lengthAdjust="spacing" textLength="129.8896" x="16" y="741.5332">&#21015;&#34920;&#30340;&#21160;&#24577;&#23646;&#24615;,&#21487;&#20197;</text><text fill="#000000" font-family="sans-serif" font-size="14" lengthAdjust="spacing" textLength="142.3857" x="16" y="759.1426">&#24456;&#22909;&#30340;&#28155;&#21152;SingleNode</text><text fill="#000000" font-family="sans-serif" font-size="14" lengthAdjust="spacing" textLength="143.8896" x="16" y="776.752">&#23545;&#35937;.&#25152;&#20197;&#19968;&#24320;&#22987;&#25105;&#20204;&#23601;</text><text fill="#000000" font-family="sans-serif" font-size="14" lengthAdjust="spacing" textLength="154" x="16" y="794.3613">&#25353;&#29031;&#19968;&#33324;&#20256;&#32479;&#30340;&#25968;&#25454;&#32467;&#26500;</text><text fill="#000000" font-family="sans-serif" font-size="14" lengthAdjust="spacing" textLength="143.8896" x="16" y="811.9707">&#35774;&#35745;&#26041;&#26696;&#35774;&#35745;&#23601;&#22909;.&#19981;&#36807;</text><text fill="#000000" font-family="sans-serif" font-size="14" lengthAdjust="spacing" textLength="129.8896" x="16" y="829.5801">&#26368;&#21518;&#38656;&#35201;&#25552;&#20379;&#20010;&#25509;&#21475;,</text><text fill="#000000" font-family="sans-serif" font-size="14" lengthAdjust="spacing" textLength="168.0068" x="16" y="847.1895">&#19987;&#38376;&#29992;&#20110;&#20462;&#25913;Manim&#20013;&#23481;&#22120;</text><text fill="#000000" font-family="sans-serif" font-size="14" lengthAdjust="spacing" textLength="161.7793" x="16" y="864.7988">&#23545;&#35937;&#25490;&#21015;&#26041;&#24335;.&#22823;&#33268;&#24605;&#24819;&#26159;,</text><text fill="#000000" font-family="sans-serif" font-size="14" lengthAdjust="spacing" textLength="149.3857" x="16" y="882.4082">&#20256;&#20837;VGroup,scene,&#28165;&#31354;</text><text fill="#000000" font-family="sans-serif" font-size="14" lengthAdjust="spacing" textLength="157.8896" x="16" y="900.0176">&#24403;&#21069;&#32452;,&#23558;&#23481;&#22120;&#20869;&#24403;&#19979;&#21015;&#34920;</text><text fill="#000000" font-family="sans-serif" font-size="14" lengthAdjust="spacing" textLength="149.3516" x="16" y="917.627">&#23545;&#35937;copy&#32473;&#32452;,&#23601;&#21487;&#20197;&#20102;.</text><text fill="#000000" font-family="sans-serif" font-size="14" lengthAdjust="spacing" textLength="167.248" x="16" y="935.2363">&#22240;&#20026;&#25105;&#20204;&#24635;&#26159;&#35201;&#28165;&#31354;scene,</text><text fill="#000000" font-family="sans-serif" font-size="14" lengthAdjust="spacing" textLength="168" x="16" y="952.8457">&#25152;&#20197;&#38656;&#35201;&#27880;&#24847;&#26368;&#21518;&#26102;&#21051;&#22330;&#26223;</text><text fill="#000000" font-family="sans-serif" font-size="14" lengthAdjust="spacing" textLength="157.8896" x="16" y="970.4551">&#20013;&#23545;&#35937;&#25670;&#21015;&#26041;&#24335;,&#21487;&#33021;&#38656;&#35201;</text><text fill="#000000" font-family="sans-serif" font-size="14" lengthAdjust="spacing" textLength="115.8896" x="16" y="988.0645">&#28155;&#21152;&#31995;&#21015;&#21028;&#26029;&#26041;&#24335;.</text></g><!--SRC=[TLLDJnjN5DtpAwoiG7qo-qYeYowwQRk9r6s5m4sH292OBDAgqYGmPWmsDi7WJy0E69i8VyK9s3CO_vcvRsR-HS-R-qmSeYA4ySozzzrpxhddBQqknkEHPv75UEJ9ivU_hCGtd_mp4y7FmWBrJgNHM5W8l_uGYQ_y7NiQMLdRd7n_kOhefn7rLsV8uw7i7-cCMNzS37PIP5hk82rlafJP5PJTzvnM-3ge6FxbMw-qBVCtP1GfaPOdTKeKgLmDtxi36tdkmA1sAJWvfViycSrWQqJxP-5xVChADNwfqgLMWIfD8Ij9L0tVVb_QRz_xxHfrUrGVpMa8hpUM5pTZVpn_jH6VZI_5rc8YelwVc_btPcOf96OZ9COhjr7jWHWD48svexJyLCEvCdig1oOTxGf67UoalLmVtRk3lJ2OIyoxeugNQyf2ntKCTsX5lws8N7VmqUivGaM003j1sPHirMNvippk_lxpg_NN6vgTrhELjUUhiT_MbsCAwVvxilBWd-uoqHUBQoil9c4Y7blzCxgul3mx9mt7lIl9wb2csx9YO1XeK5xNmb1vc4Pplf6IXNllmXQKJ0Sd7sI-whTjkYXHzm2Hb2bGwbZm0BT6_fTRp8YiBiCIo5OGXfQ20AeVK32wnZab-WZm6ccvPLBY2nh_FmPKv-2LtgSOjLSUW0g5zAYBzha5e65-kAyeWqBG0yqOHuxAfpo2TXxgP9mSngMZij-KsnarERgtoEm7ELqVMaJ_UgGql552BdIyt9cqihJRz7AEGa1MIIQ1gCyzsGcnyMRph_KrGC1C_5eJE5RMuh5Ncu8o7HIWotVkw4X7Dr2EQz71Xnzn0Xf73pJU4doyFZtp4PcQ8mM9AqxZ4AvZojO5Xa2tdnxnAfE6wzG5jeGwGx9pID8aAmxno3gXnjwKmFnnsQ-bc39kJz3eK3-zlbR20UtPVU7bUgwz7-PmEYIZSgPqgphAv8DYLg0zjPCPoB_E8ZAISk_gg-wfcz1LmaobA1o23UQJ6Sj-7Lk5bGO8RkqHMDJt8Svn0TXyOyil7WZF7iFBC8lvuF0-_2YSOJZpicfvhQIOR81dV-4TWhZPVMJrLcsrahbvYq7YaMzTerOKJNCQ1ZesWvhIWXuPxyw3M3tdK9vkewGA3QimnJiVwRQd9f4Seg1APvMpH0LFYjwMGAV_hWExqJkTvh2ej0vSvnhAO2_LKByNE9E2QkOD6x3MRgXZrLFsKgtQe4sxLvJkWpx1OjVdVRLWQ5FlRyWILtZ4Vl3kd4r0JQYo9_XIK5Pefu37xzH36demRRKzNgxaxwWp-J2dhkFj5520Iy-w2GrnKiLp6Z8vVWWIxl1iiXYiArLKDscSO2k18yWLesWBFId_DotkZuQVADk8mkpPwtyAlPxlYU-yFbna5fmqtlBLAAQ4h9oZFb8ZltLej_hLd2Va-xrQbBTG4NfdODtq_Bezrb4gwPaDrfTxL_MSiqS2Oj64xIduDMlwIei2fZ_UuKgX3R8eP2RhtfUnNTWQofnhtnmS1db8e8dDTSTjcHl-gguCPLZj8HMRKpr_Sx7GHSFV-SoqAdFL9bmbiwujY6zHN8NUbSrLHeVO1i_PLglDrIbXuYbMc4cTEcnfVUEDvnGvkiVima-ZKsRCdE4cm_aANdWIdpfbT1fxwElCXh8Tow6ABOkToTMe4Hua7X0AjWvEvthXEBs-WnYoBkHnItC1sVm7]--></g></svg>