<svg xmlns="http://www.w3.org/2000/svg" xmlns:xlink="http://www.w3.org/1999/xlink" contentStyleType="text/css" data-diagram-type="CLASS" height="519px" preserveAspectRatio="none" style="width:492px;height:519px;background:#FFFFFF;" version="1.1" viewBox="0 0 492 519" width="492px" zoomAndPan="magnify"><defs/><g><!--class C--><g class="entity" data-entity="C" data-source-line="1" data-uid="ent0002" id="entity_C"><rect fill="#F1F1F1" height="505.8438" rx="2.5" ry="2.5" style="stroke:#181818;stroke-width:0.5;" width="155.8896" x="9" y="7"/><ellipse cx="54.6948" cy="23" fill="#ADD1B2" rx="11" ry="11" style="stroke:#181818;stroke-width:1;"/><path d="M57.4604,18.875 Q57.6167,18.6563 57.8042,18.5469 Q57.9917,18.4375 58.2104,18.4375 Q58.5854,18.4375 58.8198,18.7031 Q59.0542,18.9531 59.0542,19.5625 L59.0542,21.0156 Q59.0542,21.625 58.8198,21.8906 Q58.5854,22.1563 58.2104,22.1563 Q57.8667,22.1563 57.6636,21.9531 Q57.4604,21.7656 57.3511,21.25 Q57.3042,20.8906 57.1167,20.7031 Q56.7886,20.3281 56.1792,20.1094 Q55.5698,19.8906 54.9448,19.8906 Q54.1792,19.8906 53.5386,20.2188 Q52.9136,20.5469 52.4136,21.2969 Q51.9292,22.0469 51.9292,23.0781 L51.9292,24.1719 Q51.9292,25.4063 52.8198,26.2344 Q53.7104,27.0469 55.3042,27.0469 Q56.2417,27.0469 56.8979,26.7969 Q57.2886,26.6406 57.7104,26.2031 Q57.9761,25.9375 58.1167,25.8594 Q58.2729,25.7813 58.4761,25.7813 Q58.8042,25.7813 59.0542,26.0469 Q59.3198,26.2969 59.3198,26.6406 Q59.3198,26.9844 58.9761,27.3906 Q58.4761,27.9688 57.6792,28.2969 Q56.6011,28.75 55.3042,28.75 Q53.7886,28.75 52.5854,28.125 Q51.6011,27.625 50.9136,26.5625 Q50.2261,25.4844 50.2261,24.2031 L50.2261,23.0469 Q50.2261,21.7188 50.8354,20.5781 Q51.4604,19.4219 52.5542,18.8125 Q53.6479,18.1875 54.8823,18.1875 Q55.6167,18.1875 56.2573,18.3594 Q56.9136,18.5156 57.4604,18.875 Z " fill="#000000"/><text fill="#000000" font-family="sans-serif" font-size="14" lengthAdjust="spacing" textLength="56" x="75.1948" y="28.7285">&#23454;&#29616;&#21151;&#33021;</text><line style="stroke:#181818;stroke-width:0.5;" x1="10" x2="163.8896" y1="39" y2="39"/><polygon fill="none" points="20,70.9141,16,76.9141,24,76.9141" style="stroke:#1963A0;stroke-width:1;"/><text fill="#000000" font-family="sans-serif" font-size="14" lengthAdjust="spacing" textLength="98" x="29" y="79.1426">&#32447;&#24615;&#34920;&#21160;&#24577;&#31227;&#21160;</text><polygon fill="none" points="20,87.5234,24,91.5234,20,95.5234,16,91.5234" style="stroke:#B38D22;stroke-width:1;"/><text fill="#000000" font-family="sans-serif" font-size="14" lengthAdjust="spacing" textLength="98" x="29" y="96.752">&#32447;&#24615;&#34920;&#39034;&#24207;&#23384;&#20648;</text><ellipse cx="20" cy="110.1328" fill="none" rx="3" ry="3" style="stroke:#038048;stroke-width:1;"/><text fill="#000000" font-family="sans-serif" font-size="14" lengthAdjust="spacing" textLength="84" x="29" y="114.3613">&#32447;&#24615;&#34920;&#21021;&#22987;&#21270;</text><rect fill="none" height="6" style="stroke:#C82930;stroke-width:1;" width="6" x="17" y="124.7422"/><text fill="#000000" font-family="sans-serif" font-size="14" lengthAdjust="spacing" textLength="84" x="29" y="131.9707">&#32447;&#24615;&#34920;&#30340;&#38144;&#27585;</text><polygon fill="none" points="20,141.3516,16,147.3516,24,147.3516" style="stroke:#1963A0;stroke-width:1;"/><text fill="#000000" font-family="sans-serif" font-size="14" lengthAdjust="spacing" textLength="84" x="29" y="149.5801">&#32447;&#24615;&#34920;&#30340;&#28165;&#31354;</text><polygon fill="none" points="20,157.9609,24,161.9609,20,165.9609,16,161.9609" style="stroke:#B38D22;stroke-width:1;"/><text fill="#000000" font-family="sans-serif" font-size="14" lengthAdjust="spacing" textLength="84" x="29" y="167.1895">&#32447;&#24615;&#34920;&#30340;&#25554;&#20837;</text><ellipse cx="20" cy="180.5703" fill="none" rx="3" ry="3" style="stroke:#038048;stroke-width:1;"/><text fill="#000000" font-family="sans-serif" font-size="14" lengthAdjust="spacing" textLength="84" x="29" y="184.7988">&#32447;&#24615;&#34920;&#30340;&#21024;&#38500;</text><rect fill="none" height="6" style="stroke:#C82930;stroke-width:1;" width="6" x="17" y="195.1797"/><text fill="#000000" font-family="sans-serif" font-size="14" lengthAdjust="spacing" textLength="112" x="29" y="202.4082">&#32447;&#24615;&#34920;&#30340;&#26597;&#25214;&#23450;&#20301;</text><polygon fill="none" points="20,211.7891,16,217.7891,24,217.7891" style="stroke:#1963A0;stroke-width:1;"/><text fill="#000000" font-family="sans-serif" font-size="14" lengthAdjust="spacing" textLength="112" x="29" y="220.0176">&#32447;&#24615;&#34920;&#30340;&#36941;&#21382;&#36755;&#20986;</text><line style="stroke:#181818;stroke-width:1;" x1="10" x2="58.9448" y1="55.8047" y2="55.8047"/><line style="stroke:#181818;stroke-width:1;" x1="10" x2="58.9448" y1="57.8047" y2="57.8047"/><text fill="#000000" font-family="sans-serif" font-size="14" lengthAdjust="spacing" textLength="56" x="58.9448" y="61.0332">&#22522;&#26412;&#21151;&#33021;</text><line style="stroke:#181818;stroke-width:1;" x1="114.9448" x2="163.8896" y1="55.8047" y2="55.8047"/><line style="stroke:#181818;stroke-width:1;" x1="114.9448" x2="163.8896" y1="57.8047" y2="57.8047"/><text fill="#000000" font-family="sans-serif" font-size="14" lengthAdjust="spacing" textLength="129.8896" x="15" y="259.2363">&#36825;&#20010;&#31867;,&#21482;&#26159;&#25552;&#20379;&#32447;&#24615;</text><text fill="#000000" font-family="sans-serif" font-size="14" lengthAdjust="spacing" textLength="129.8896" x="15" y="276.8457">&#34920;&#30456;&#20851;&#31639;&#27861;&#21160;&#30011;&#36923;&#36753;,</text><text fill="#000000" font-family="sans-serif" font-size="14" lengthAdjust="spacing" textLength="129.8896" x="15" y="294.4551">&#19981;&#20855;&#22791;&#36890;&#29992;&#24615;,&#19968;&#23450;&#24773;</text><text fill="#000000" font-family="sans-serif" font-size="14" lengthAdjust="spacing" textLength="130.6621" x="15" y="312.0645">&#20917;&#19979;&#20855;&#22791;&#21487;&#25299;&#23637;&#24615;(&#21487;</text><text fill="#000000" font-family="sans-serif" font-size="14" lengthAdjust="spacing" textLength="134.5518" x="15" y="329.6738">&#34987;&#32487;&#25215;).&#27604;&#22914;&#26576;&#20123;&#32447;&#24615;</text><text fill="#000000" font-family="sans-serif" font-size="14" lengthAdjust="spacing" textLength="143.8896" x="15" y="347.2832">&#34920;&#30456;&#20851;&#30340;&#20855;&#20307;&#38382;&#39064;,&#21487;&#20197;</text><text fill="#000000" font-family="sans-serif" font-size="14" lengthAdjust="spacing" textLength="143.8896" x="15" y="364.8926">&#32487;&#25215;&#35813;&#31867;&#23454;&#29616;,&#20294;&#32487;&#25215;&#19981;</text><text fill="#000000" font-family="sans-serif" font-size="14" lengthAdjust="spacing" textLength="143.8896" x="15" y="382.502">&#20195;&#34920;&#20854;&#25152;&#26377;&#26041;&#27861;&#37117;&#21487;&#29992;.</text><text fill="#000000" font-family="sans-serif" font-size="14" lengthAdjust="spacing" textLength="3.8896" x="15" y="400.1113">&#160;</text><text fill="#000000" font-family="sans-serif" font-size="14" lengthAdjust="spacing" textLength="119.7793" x="15" y="417.7207">&#20877;&#24378;&#35843;&#19968;&#19979;,&#36825;&#20010;&#31867;,</text><text fill="#000000" font-family="sans-serif" font-size="14" lengthAdjust="spacing" textLength="126" x="15" y="435.3301">&#21482;&#26159;&#23553;&#35013;&#21160;&#30011;&#20013;&#31639;&#27861;</text><text fill="#000000" font-family="sans-serif" font-size="14" lengthAdjust="spacing" textLength="129.8896" x="15" y="452.9395">&#36923;&#36753;,&#24182;&#19981;&#26159;&#21160;&#30011;&#29983;&#25104;</text><text fill="#000000" font-family="sans-serif" font-size="14" lengthAdjust="spacing" textLength="129.1377" x="15" y="470.5488">&#22120;,&#19981;&#25552;&#20379;scene&#25509;&#21475;,</text><text fill="#000000" font-family="sans-serif" font-size="14" lengthAdjust="spacing" textLength="140" x="15" y="488.1582">&#20165;&#20379;&#19987;&#38376;&#29983;&#25104;&#21160;&#30011;&#30340;&#31867;</text><text fill="#000000" font-family="sans-serif" font-size="14" lengthAdjust="spacing" textLength="45.8896" x="15" y="505.7676">&#26469;&#35775;&#38382;.</text><line style="stroke:#181818;stroke-width:1;" x1="10" x2="58.9448" y1="235.8984" y2="235.8984"/><line style="stroke:#181818;stroke-width:1;" x1="10" x2="58.9448" y1="237.8984" y2="237.8984"/><text fill="#000000" font-family="sans-serif" font-size="14" lengthAdjust="spacing" textLength="56" x="58.9448" y="241.127">&#22320;&#20301;&#25551;&#36848;</text><line style="stroke:#181818;stroke-width:1;" x1="114.9448" x2="163.8896" y1="235.8984" y2="235.8984"/><line style="stroke:#181818;stroke-width:1;" x1="114.9448" x2="163.8896" y1="237.8984" y2="237.8984"/></g><!--class T--><g class="entity" data-entity="T" data-source-line="31" data-uid="ent0003" id="entity_T"><rect fill="#F1F1F1" height="333.75" rx="2.5" ry="2.5" style="stroke:#181818;stroke-width:0.5;" width="285.7793" x="200" y="93"/><ellipse cx="324.6396" cy="109" fill="#ADD1B2" rx="11" ry="11" style="stroke:#181818;stroke-width:1;"/><path d="M327.4053,104.875 Q327.5615,104.6563 327.749,104.5469 Q327.9365,104.4375 328.1553,104.4375 Q328.5303,104.4375 328.7646,104.7031 Q328.999,104.9531 328.999,105.5625 L328.999,107.0156 Q328.999,107.625 328.7646,107.8906 Q328.5303,108.1563 328.1553,108.1563 Q327.8115,108.1563 327.6084,107.9531 Q327.4053,107.7656 327.2959,107.25 Q327.249,106.8906 327.0615,106.7031 Q326.7334,106.3281 326.124,106.1094 Q325.5146,105.8906 324.8896,105.8906 Q324.124,105.8906 323.4834,106.2188 Q322.8584,106.5469 322.3584,107.2969 Q321.874,108.0469 321.874,109.0781 L321.874,110.1719 Q321.874,111.4063 322.7646,112.2344 Q323.6553,113.0469 325.249,113.0469 Q326.1865,113.0469 326.8428,112.7969 Q327.2334,112.6406 327.6553,112.2031 Q327.9209,111.9375 328.0615,111.8594 Q328.2178,111.7813 328.4209,111.7813 Q328.749,111.7813 328.999,112.0469 Q329.2646,112.2969 329.2646,112.6406 Q329.2646,112.9844 328.9209,113.3906 Q328.4209,113.9688 327.624,114.2969 Q326.5459,114.75 325.249,114.75 Q323.7334,114.75 322.5303,114.125 Q321.5459,113.625 320.8584,112.5625 Q320.1709,111.4844 320.1709,110.2031 L320.1709,109.0469 Q320.1709,107.7188 320.7803,106.5781 Q321.4053,105.4219 322.499,104.8125 Q323.5928,104.1875 324.8271,104.1875 Q325.5615,104.1875 326.2021,104.3594 Q326.8584,104.5156 327.4053,104.875 Z " fill="#000000"/><text fill="#000000" font-family="sans-serif" font-size="14" lengthAdjust="spacing" textLength="28" x="345.1396" y="114.7285">&#24819;&#27861;</text><line style="stroke:#181818;stroke-width:0.5;" x1="201" x2="484.7793" y1="125" y2="125"/><text fill="#000000" font-family="sans-serif" font-size="14" lengthAdjust="spacing" textLength="234.9717" x="206" y="165.1426">&#31532;&#19968;&#26159;&#21482;&#26377;SequentialListAlgorithm&#31867;,</text><text fill="#000000" font-family="sans-serif" font-size="14" lengthAdjust="spacing" textLength="87.8896" x="206" y="182.752">&#21151;&#33021;&#22218;&#25324;&#25152;&#26377;.</text><text fill="#000000" font-family="sans-serif" font-size="14" lengthAdjust="spacing" textLength="245.7793" x="206" y="200.3613">&#31532;&#20108;&#20010;&#26159;&#20998;&#27573;,&#20808;&#27169;&#25311;&#25277;&#35937;&#25968;&#25454;,&#29992;&#20110;&#23384;&#20648;</text><text fill="#000000" font-family="sans-serif" font-size="14" lengthAdjust="spacing" textLength="248.165" x="206" y="217.9707">SingleNode,&#28982;&#21518;&#20877;&#29992;&#31639;&#27861;&#31867;,&#23545;&#36825;&#20123;&#25277;&#35937;</text><text fill="#000000" font-family="sans-serif" font-size="14" lengthAdjust="spacing" textLength="115.8896" x="206" y="235.5801">&#25968;&#25454;&#32467;&#26500;&#36827;&#34892;&#25805;&#20316;.</text><line style="stroke:#181818;stroke-width:1;" x1="201" x2="314.8896" y1="141.8047" y2="141.8047"/><line style="stroke:#181818;stroke-width:1;" x1="201" x2="314.8896" y1="143.8047" y2="143.8047"/><text fill="#000000" font-family="sans-serif" font-size="14" lengthAdjust="spacing" textLength="56" x="314.8896" y="147.0332">&#20010;&#20154;&#24819;&#27861;</text><line style="stroke:#181818;stroke-width:1;" x1="370.8896" x2="484.7793" y1="141.8047" y2="141.8047"/><line style="stroke:#181818;stroke-width:1;" x1="370.8896" x2="484.7793" y1="143.8047" y2="143.8047"/><text fill="#000000" font-family="sans-serif" font-size="14" lengthAdjust="spacing" textLength="273.7793" x="206" y="274.7988">&#26041;&#27861;&#19968;&#21602;,&#30446;&#21069;&#24050;&#26377;&#30473;&#30446;,&#20294;&#26159;&#20063;&#20165;&#20165;&#26159;&#23545;&#24403;&#21069;</text><text fill="#000000" font-family="sans-serif" font-size="14" lengthAdjust="spacing" textLength="234.9717" x="206" y="292.4082">&#31867;SequentialListAlgorithm&#32780;&#35328;,&#23545;&#21518;&#32493;</text><text fill="#000000" font-family="sans-serif" font-size="14" lengthAdjust="spacing" textLength="129.8896" x="206" y="310.0176">&#19981;&#20855;&#22791;&#31639;&#27861;&#30340;&#25299;&#23637;&#24615;.</text><text fill="#000000" font-family="sans-serif" font-size="14" lengthAdjust="spacing" textLength="249.6689" x="206" y="327.627">&#26041;&#27861;&#20108;&#21602;,&#36824;&#27809;&#26377;&#24605;&#32771;&#22909;,&#20294;&#26159;&#26497;&#20855;&#24310;&#23637;&#24615;,</text><text fill="#000000" font-family="sans-serif" font-size="14" lengthAdjust="spacing" textLength="259.7793" x="206" y="345.2363">&#20551;&#22914;&#23454;&#29616;&#20102;,&#23545;&#21518;&#32493;&#31639;&#27861;&#21160;&#30011;&#29983;&#25104;&#24456;&#26377;&#24110;&#21161;.</text><line style="stroke:#181818;stroke-width:1;" x1="201" x2="328.8896" y1="251.4609" y2="251.4609"/><line style="stroke:#181818;stroke-width:1;" x1="201" x2="328.8896" y1="253.4609" y2="253.4609"/><text fill="#000000" font-family="sans-serif" font-size="14" lengthAdjust="spacing" textLength="28" x="328.8896" y="256.6895">&#31616;&#36848;</text><line style="stroke:#181818;stroke-width:1;" x1="356.8896" x2="484.7793" y1="251.4609" y2="251.4609"/><line style="stroke:#181818;stroke-width:1;" x1="356.8896" x2="484.7793" y1="253.4609" y2="253.4609"/><text fill="#000000" font-family="sans-serif" font-size="14" lengthAdjust="spacing" textLength="269.8896" x="206" y="384.4551">&#26082;&#28982;&#24050;&#32463;&#26377;&#20102;&#26041;&#27861;&#19968;&#20570;&#20445;&#24213;,&#37027;&#20040;&#20063;&#27809;&#24517;&#35201;&#22826;</text><text fill="#000000" font-family="sans-serif" font-size="14" lengthAdjust="spacing" textLength="273.7793" x="206" y="402.0645">&#26089;&#30340;&#23454;&#29616;,&#31449;&#22312;&#38271;&#36828;&#30340;&#35282;&#24230;&#26469;&#30475;,&#24212;&#35813;&#24378;&#25915;&#26041;&#27861;</text><text fill="#000000" font-family="sans-serif" font-size="14" lengthAdjust="spacing" textLength="263.6689" x="206" y="419.6738">&#20108;,&#22914;&#26524;&#35777;&#23454;&#19981;&#34892;,&#20877;&#22238;&#22836;&#37325;&#20889;&#26041;&#27861;&#19968;&#20063;&#19981;&#26202;.</text><line style="stroke:#181818;stroke-width:1;" x1="201" x2="328.8896" y1="361.1172" y2="361.1172"/><line style="stroke:#181818;stroke-width:1;" x1="201" x2="328.8896" y1="363.1172" y2="363.1172"/><text fill="#000000" font-family="sans-serif" font-size="14" lengthAdjust="spacing" textLength="28" x="328.8896" y="366.3457">&#25171;&#31639;</text><line style="stroke:#181818;stroke-width:1;" x1="356.8896" x2="484.7793" y1="361.1172" y2="361.1172"/><line style="stroke:#181818;stroke-width:1;" x1="356.8896" x2="484.7793" y1="363.1172" y2="363.1172"/></g><!--SRC=[TPFDKXj74CVlUWgLSt4g6xq1XrIkgLoS5w28og6Au4g4JwwaTX4hzBtOaWpwGB808O5XLq0CgrbB-pBJFRDlaPwT1H6Ag7IGfdl-_U_VTAzjhEPowH_Jgxdq2t3xeZw5ya3cvo_UfTBqMLc10SFUXJvSMOaF_quB5g8vbiC9b2TeMc8Sq8yuziqo5WqPC0Sk3s1RnxvxTAzu2ECAL3_6WU-N0T7PYPecUjRJIXH0tnPdx6aP5N0-W3rwMeC2KFmKjK-UgO634POMu7RulFPCfSYgGRqW5mtOPVSSUbFAHSUHuJJX8CCszy_5LM20Suu77ZfxVD7LEZg1nBe-s3V2tSUR5Z4IpI0o0xbuRyG9tA-1VGSdkv7P4Kr2EJQuRv8jpDjn0XI-SB-YSy3niDA0gnQblQG_kiJHPn6CiHH-cq6l2QVREDZZx7aJnCE-u_D6jEz6HmTaskE1fgObf3UYPlGK67nUqAVaKNiDZjN3sRTOCh5NmeypQYdApqc6h6TIYTyQV6LocgSsoBYnHAJ3CIUOMlBOrZIuVwdXnF643SnkgQhAZ7D4Su35FItGdXWg59FEhMKtirWVWNESu0niEkO-TJZHbnA1pWvPY5FmS2JTa0XaKd-bKgcrUFn_YSSVypVaus7moJTdJ1yc3oukBgWlvOlww9LUPVzucztSMb_T-6azj_N3nkitVwvl_VRxijjuQQ1Rnig5XfPva65LqbTAnGAwNmomYpWPOcM0vRcy6c9hYZNN8AwSrHzjqAlrpTSRsP_V_9ernCujxDM9DoLfWl4WUZE5d7MrZcuv5XD10_ixCkpAOHKRDJxlPP96XMikPre_gnh2zqU6wBfGgi7TDLaNzEswQYp8DPyD5El0LXruCvWtA4_tTXNy3nPfLkN4L0x9jmWk_xi0IGkqcVSZdddiXrML7naUuFLG3PzvACqyZEQ97-nRIYQurLSJ_DOkxOCUPyuAoygFjp4PaqMHLC5teNnsZmLB3Kgynx9_f83VNOl0eKoIMuAoEZmy1DOoekrZFYiI6p89eIrFBJWvJwwVgUtJcoK-jw4tYLgX37jqAiSVW9tIN8fUnG3Mf2sa5S9ce2jeJAnggDtkzwHdaGnXesSqrBPr-t3oJxHRWqBxmP9w7bgITYSUydy1]--></g></svg>