<?xml version="1.0" encoding="UTF-8"?>
<svg id="_图层_1" data-name=" 图层 1" xmlns="http://www.w3.org/2000/svg" viewBox="0 0 214.35 215.02">
  <defs>
    <style>
      .cls-1 {
        fill: none;
        stroke: #ece6e2;
        stroke-miterlimit: 10;
        stroke-width: 2px;
      }
    </style>
  </defs>
  <path class="cls-1" d="M213.35,123.53c-8.37,4.64-19.99,6.96-34.86,6.96h-9.3c-2.48-3.87-4.96-7.73-7.44-11.6-14.41-21.81-36.26-50.58-65.55-86.3-9.76-12.53-17.2-19.95-22.31-23.2-4.65-2.78-14.41-5.57-28.36-7.89.93.93,1.86,1.86,2.79,2.79,2.32,15.77,3.25,30.16,3.25,43.62,0,27.38-2.32,55.21-6.97,83.05-22.78.46-37.19,7.43-42.77,21.35,9.76-4.18,23.24-6.5,39.98-6.5-.46,5.11-1.86,10.21-2.79,15.31-4.65,20.88-12.09,34.34-21.85,40.37,8.37,8.35,15.8,12.53,21.85,12.53,13.95,0,24.64-22.73,32.54-68.21,9.76-.93,23.24-1.39,40.45-.93h27.43l15.8.93v.93c11.62,21.34,17.2,37.59,17.2,49.65,0,3.25-1.39,6.5-3.72,9.75,1.86.93,6.97,2.78,14.41,5.57,3.72.93,6.97,1.86,10.23,1.86,6.51,0,9.3-3.25,9.3-9.28,0-12.53-7.44-31.55-23.24-57.54,18.59-.46,29.29-8.35,33.93-23.2v-.02ZM112.02,128.17c-13.02,0-25.57.46-37.66,1.86v-5.11c4.18-31.55,6.51-58,6.04-78.88v-8.35c3.72,4.18,9.3,11.6,18.13,21.81,18.6,23.2,32.54,43.62,41.38,60.79l4.65,7.89h-32.54Z"/>
</svg>