<?xml version="1.0" encoding="UTF-8"?>
<svg id="_图层_1" data-name="图层 1" xmlns="http://www.w3.org/2000/svg" viewBox="0 0 213.51 155.51">
  <defs>
    <style>
      .cls-1 {
        fill: #c55f73;
        stroke: #c55f73;
        stroke-miterlimit: 10;
        stroke-width: 7px;
      }

      .cls-2 {
        fill: #5cd0b3;
      }
    </style>
  </defs>
  <path class="cls-1" d="M164.85,77.75c-19.37-19.38-38.73-38.75-58.1-58.13M164.85,77.75c9.68,19.38,19.37,38.75,29.05,58.13M164.85,77.75c-9.68,19.38-19.37,38.75-29.05,58.13M48.66,77.75c19.37-19.38,38.73-38.75,58.1-58.13M48.66,77.75c9.68,19.38,19.37,38.75,29.05,58.13M48.66,77.75c-9.68,19.38-19.37,38.75-29.05,58.13"/>
  <path class="cls-2" d="M184.46,77.75c0-5.2-2.07-10.2-5.75-13.88-3.68-3.68-8.66-5.75-13.86-5.75s-10.19,2.07-13.86,5.75c-3.68,3.68-5.75,8.67-5.75,13.88s2.07,10.2,5.75,13.88c3.68,3.68,8.66,5.75,13.86,5.75s10.19-2.07,13.86-5.75c3.68-3.68,5.75-8.67,5.75-13.88ZM68.27,77.75c0-5.2-2.07-10.2-5.75-13.88-3.68-3.68-8.66-5.75-13.86-5.75s-10.19,2.07-13.86,5.75c-3.68,3.68-5.75,8.67-5.75,13.88s2.07,10.2,5.75,13.88c3.68,3.68,8.66,5.75,13.86,5.75s10.19-2.07,13.86-5.75c3.68-3.68,5.75-8.67,5.75-13.88ZM126.36,19.62c0-5.2-2.07-10.2-5.75-13.87-3.68-3.68-8.66-5.75-13.86-5.75s-10.19,2.07-13.86,5.75c-3.68,3.68-5.75,8.67-5.75,13.87s2.07,10.2,5.75,13.88,8.66,5.75,13.86,5.75,10.19-2.07,13.86-5.75,5.75-8.67,5.75-13.88ZM213.51,135.89c0-5.2-2.07-10.2-5.74-13.88-3.68-3.68-8.66-5.75-13.87-5.75s-10.19,2.07-13.86,5.75c-3.68,3.68-5.74,8.67-5.74,13.88s2.07,10.2,5.74,13.88,8.66,5.75,13.86,5.75,10.19-2.07,13.87-5.75,5.74-8.67,5.74-13.88ZM155.41,135.89c0-5.2-2.07-10.2-5.74-13.88-3.68-3.68-8.66-5.75-13.87-5.75s-10.19,2.07-13.86,5.75c-3.68,3.68-5.74,8.67-5.74,13.88s2.07,10.2,5.74,13.88,8.66,5.75,13.86,5.75,10.19-2.07,13.87-5.75,5.74-8.67,5.74-13.88ZM97.31,135.89c0-5.2-2.07-10.2-5.74-13.88-3.68-3.68-8.66-5.75-13.86-5.75s-10.19,2.07-13.87,5.75c-3.68,3.68-5.74,8.67-5.74,13.88s2.07,10.2,5.74,13.88,8.66,5.75,13.87,5.75,10.19-2.07,13.86-5.75,5.74-8.67,5.74-13.88ZM39.21,135.89c0-5.2-2.07-10.2-5.74-13.88-3.68-3.68-8.66-5.75-13.86-5.75s-10.19,2.07-13.87,5.75c-3.68,3.68-5.74,8.67-5.74,13.88s2.07,10.2,5.74,13.88,8.66,5.75,13.87,5.75,10.19-2.07,13.86-5.75,5.74-8.67,5.74-13.88Z"/>
</svg>