<?xml version="1.0" standalone="no"?><!DOCTYPE svg PUBLIC "-//W3C//DTD SVG 1.1//EN" "http://www.w3.org/Graphics/SVG/1.1/DTD/svg11.dtd"><svg t="1755087137898" class="icon" viewBox="0 0 1024 1024" version="1.1" xmlns="http://www.w3.org/2000/svg" p-id="1340" xmlns:xlink="http://www.w3.org/1999/xlink" width="200" height="200"><path d="M718.46 818.49c1.93 0 1.93-3 0-3s-1.93 3 0 3z" fill="#510C0C" p-id="1341"></path><path d="M622.29 426.16h-63.07v-16.52c0-20.87-10.46-21.33-23.35-21.33s-23.35 0.46-23.35 13.35v24.49h-63.07c-27.46 0-49.72 22.26-49.72 49.72v210.44c0 27.46 22.26 49.72 49.72 49.72h172.84c27.46 0 49.72-22.26 49.72-49.72V475.87c0-27.46-22.26-49.72-49.72-49.72z" fill="#FFBBCD" p-id="1342"></path><path d="M622.29 744.04H449.45c-31.83 0-57.72-25.89-57.72-57.72V475.88c0-31.83 25.89-57.72 57.72-57.72h55.07v-16.49c0-11.65 6.43-16.72 11.82-18.92 5.51-2.25 12.11-2.43 19.54-2.43 11.73 0 31.35 0 31.35 29.33v8.52h55.07c31.83 0 57.72 25.89 57.72 57.72v210.44c0 31.83-25.89 57.72-57.72 57.72zM449.45 434.16c-23 0-41.72 18.71-41.72 41.72v210.44c0 23 18.71 41.72 41.72 41.72h172.84c23 0 41.72-18.71 41.72-41.72V475.88c0-23-18.71-41.72-41.72-41.72h-71.07v-24.52c0-4.44-0.55-10.08-3.17-11.77-2.42-1.56-7.83-1.56-12.18-1.56-15.35 0-15.35 1.35-15.35 5.35v32.49h-71.07z" fill="#510C0C" p-id="1343"></path><path d="M598.55 251.43c0 58.11-28.06 105.21-62.68 105.21s-62.68-47.11-62.68-105.21 62.68-103.27 62.68-103.27 62.68 45.16 62.68 103.27z" fill="#FFEB99" p-id="1344"></path><path d="M535.87 364.64c-19.67 0-37.86-12.33-51.19-34.72-12.57-21.09-19.49-48.97-19.49-78.49 0-25.67 11.49-52.85 33.23-78.59 16.12-19.09 32.1-30.69 32.78-31.17l4.68-3.37 4.68 3.37c2.69 1.94 66 48.26 66 109.76 0 29.52-6.92 57.4-19.49 78.49-13.34 22.39-31.52 34.72-51.19 34.72z m0-206.32c-5.65 4.63-15.62 13.42-25.47 25.13-13.33 15.85-29.21 40.5-29.21 67.98s6.12 51.65 17.23 70.3c10.34 17.35 23.64 26.91 37.45 26.91s27.11-9.56 37.45-26.91c11.11-18.65 17.23-43.62 17.23-70.3s-15.89-52.13-29.21-67.98c-9.85-11.71-19.82-20.5-25.47-25.13z" fill="#510C0C" p-id="1345"></path><path d="M765.66 883H306.07c-52.09 0-94.32-54.76-94.32-106.85s648.23 0 648.23 0c0 52.09-42.23 106.85-94.32 106.85z" fill="#FFEB99" p-id="1346"></path><path d="M827.37 856h-583c-4.42 0-8-3.58-8-8s3.58-8 8-8h583c4.42 0 8 3.58 8 8s-3.58 8-8 8z" fill="#FFFFFF" p-id="1347"></path><path d="M765.66 891H306.07c-26.94 0-52.79-13.04-72.81-36.73-18.76-22.2-29.52-50.68-29.52-78.12v-8h664.23v8c0 54.22-43.76 114.85-102.32 114.85zM220.1 784.15c1.84 21.2 10.86 42.61 25.39 59.8 16.92 20.03 38.44 31.05 60.58 31.05h459.59c22.15 0 43.66-11.03 60.58-31.05 14.52-17.19 23.55-38.6 25.39-59.8H220.1z" fill="#510C0C" p-id="1348"></path></svg>