<?xml version="1.0" standalone="no"?><!DOCTYPE svg PUBLIC "-//W3C//DTD SVG 1.1//EN" "http://www.w3.org/Graphics/SVG/1.1/DTD/svg11.dtd"><svg t="1755697130234" class="icon" viewBox="0 0 1024 1024" version="1.1" xmlns="http://www.w3.org/2000/svg" p-id="15688" xmlns:xlink="http://www.w3.org/1999/xlink" width="200" height="200"><path d="M908 162.8H116c-28.7 0-52 23.3-52 52v540.1c0 28.7 23.3 52 52 52h792c28.7 0 52-23.3 52-52V214.8c0-28.7-23.2-52-52-52z m15.3 526.9H99.6V209.2h823.7v480.5z" fill="#282727" p-id="15689"></path><path d="M123.7 233.3h775.5v432.4H123.7zM408.4 807.2h208.1v31.2H408.4z" fill="#282727" p-id="15690"></path><path d="M893.8 887.3H141.1c-1 0-1.9-0.9-1.9-1.9 0-0.6 0.3-1.1 0.7-1.5l46.9-37.2c12.7-10.1 28.5-15.6 44.7-15.6H804c15.8 0 31.1 5.3 43.5 15.2l47.4 37.6c0.8 0.7 0.9 1.9 0.3 2.7-0.3 0.4-0.9 0.7-1.4 0.7z" fill="#282727" p-id="15691"></path><path d="M512 745.9m-29.7 0a29.7 29.7 0 1 0 59.4 0 29.7 29.7 0 1 0-59.4 0Z" fill="#E02727" p-id="15692"></path></svg>