<svg xmlns="http://www.w3.org/2000/svg" xmlns:xlink="http://www.w3.org/1999/xlink" contentStyleType="text/css" data-diagram-type="CLASS" height="472px" preserveAspectRatio="none" style="width:159px;height:472px;background:#FFFFFF;" version="1.1" viewBox="0 0 159 472" width="159px" zoomAndPan="magnify"><defs/><g><!--class mM--><g class="entity" data-entity="mM" data-source-line="1" data-uid="ent0002" id="entity_mM"><rect fill="#F1F1F1" height="451.4063" rx="2.5" ry="2.5" style="stroke:#181818;stroke-width:0.5;" width="138.0615" x="7" y="7"/><ellipse cx="31.9092" cy="23" fill="#EB937F" rx="11" ry="11" style="stroke:#181818;stroke-width:1;"/><path d="M30.7686,23.7969 L30.7686,26.2969 L35.0967,26.2969 L35.0967,25.375 Q35.0967,24.7656 35.3311,24.5 Q35.5811,24.2344 35.9561,24.2344 Q36.3311,24.2344 36.5655,24.5 Q36.7999,24.7656 36.7999,25.375 L36.7999,28 L28.7999,28 Q28.1749,28 27.9092,27.7656 Q27.6592,27.5313 27.6592,27.1406 Q27.6592,26.7656 27.9249,26.5313 Q28.1905,26.2969 28.7999,26.2969 L29.0655,26.2969 L29.0655,19.6406 L28.7999,19.6406 Q28.1749,19.6406 27.9092,19.4063 Q27.6592,19.1719 27.6592,18.7813 Q27.6592,18.4063 27.9092,18.1719 Q28.1749,17.9375 28.7999,17.9375 L36.4249,17.9375 L36.4249,20.5313 Q36.4249,21.1406 36.1905,21.4063 Q35.9717,21.6563 35.5811,21.6563 Q35.2061,21.6563 34.9717,21.4063 Q34.7374,21.1406 34.7374,20.5313 L34.7374,19.6406 L30.7686,19.6406 L30.7686,22.0938 L32.253,22.0938 Q32.253,21.4375 32.378,21.25 Q32.6436,20.8438 33.1124,20.8438 Q33.4874,20.8438 33.7217,21.1094 Q33.9561,21.3594 33.9561,21.9688 L33.9561,23.9375 Q33.9561,24.4844 33.8311,24.6719 Q33.5655,25.0625 33.1124,25.0625 Q32.6436,25.0625 32.378,24.6563 Q32.253,24.4688 32.253,23.7969 L30.7686,23.7969 Z " fill="#000000"/><text fill="#000000" font-family="sans-serif" font-size="14" lengthAdjust="spacing" textLength="84.041" x="48.1113" y="28.7285">magicMethod</text><line style="stroke:#181818;stroke-width:0.5;" x1="8" x2="144.0615" y1="39" y2="39"/><ellipse cx="18" cy="74.9141" fill="#84BE84" rx="3" ry="3" style="stroke:#038048;stroke-width:1;"/><text fill="#000000" font-family="sans-serif" font-size="14" lengthAdjust="spacing" textLength="58.3652" x="27" y="79.1426">__init__()</text><line style="stroke:#181818;stroke-width:1;" x1="8" x2="55.0308" y1="55.8047" y2="55.8047"/><text fill="#008000" font-family="sans-serif" font-size="14" lengthAdjust="spacing" textLength="42" x="55.0308" y="61.0332">&#21021;&#22987;&#21270;</text><line style="stroke:#181818;stroke-width:1;" x1="97.0308" x2="144.0615" y1="55.8047" y2="55.8047"/><ellipse cx="18" cy="114.1328" fill="#84BE84" rx="3" ry="3" style="stroke:#038048;stroke-width:1;"/><text fill="#000000" font-family="sans-serif" font-size="14" lengthAdjust="spacing" textLength="85.5928" x="27" y="118.3613">reset_points()</text><ellipse cx="18" cy="131.7422" fill="#84BE84" rx="3" ry="3" style="stroke:#038048;stroke-width:1;"/><text fill="#000000" font-family="sans-serif" font-size="14" lengthAdjust="spacing" textLength="109.7373" x="27" y="135.9707">generate_points()</text><ellipse cx="18" cy="149.3516" fill="#84BE84" rx="3" ry="3" style="stroke:#038048;stroke-width:1;"/><text fill="#000000" font-family="sans-serif" font-size="14" lengthAdjust="spacing" textLength="72.3516" x="27" y="153.5801">init_colors()</text><line style="stroke:#181818;stroke-width:1;stroke-dasharray:1.0,2.0;" x1="8" x2="34.0308" y1="95.0234" y2="95.0234"/><text fill="#90EE90" font-family="sans-serif" font-size="14" lengthAdjust="spacing" textLength="84" x="34.0308" y="100.252">&#21021;&#22987;&#21270;&#23376;&#20989;&#25968;</text><line style="stroke:#181818;stroke-width:1;stroke-dasharray:1.0,2.0;" x1="118.0308" x2="144.0615" y1="95.0234" y2="95.0234"/><ellipse cx="18" cy="188.5703" fill="#84BE84" rx="3" ry="3" style="stroke:#038048;stroke-width:1;"/><text fill="#000000" font-family="sans-serif" font-size="14" lengthAdjust="spacing" textLength="63.8271" x="27" y="192.7988">__add__()</text><ellipse cx="18" cy="206.1797" fill="#84BE84" rx="3" ry="3" style="stroke:#038048;stroke-width:1;"/><text fill="#000000" font-family="sans-serif" font-size="14" lengthAdjust="spacing" textLength="66.9375" x="27" y="210.4082">__iadd__()</text><ellipse cx="18" cy="223.7891" fill="#84BE84" rx="3" ry="3" style="stroke:#038048;stroke-width:1;"/><text fill="#000000" font-family="sans-serif" font-size="14" lengthAdjust="spacing" textLength="63.041" x="27" y="228.0176">__sub__()</text><ellipse cx="18" cy="241.3984" fill="#84BE84" rx="3" ry="3" style="stroke:#038048;stroke-width:1;"/><text fill="#000000" font-family="sans-serif" font-size="14" lengthAdjust="spacing" textLength="66.1514" x="27" y="245.627">__isub__()</text><line style="stroke:#181818;stroke-width:1;" x1="8" x2="62.0308" y1="169.4609" y2="169.4609"/><text fill="#FFC0CB" font-family="sans-serif" font-size="14" lengthAdjust="spacing" textLength="28" x="62.0308" y="174.6895">&#21344;&#20301;</text><line style="stroke:#181818;stroke-width:1;" x1="90.0308" x2="144.0615" y1="169.4609" y2="169.4609"/><ellipse cx="18" cy="280.6172" fill="#84BE84" rx="3" ry="3" style="stroke:#038048;stroke-width:1;"/><text fill="#000000" font-family="sans-serif" font-size="14" lengthAdjust="spacing" textLength="59.917" x="27" y="284.8457">__iter__()</text><ellipse cx="18" cy="298.2266" fill="#84BE84" rx="3" ry="3" style="stroke:#038048;stroke-width:1;"/><text fill="#000000" font-family="sans-serif" font-size="14" lengthAdjust="spacing" textLength="59.1514" x="27" y="302.4551">__len__()</text><ellipse cx="18" cy="315.8359" fill="#84BE84" rx="3" ry="3" style="stroke:#038048;stroke-width:1;"/><text fill="#000000" font-family="sans-serif" font-size="14" lengthAdjust="spacing" textLength="86.3789" x="27" y="320.0645">__getitem__()</text><line style="stroke:#181818;stroke-width:1;" x1="8" x2="41.0308" y1="261.5078" y2="261.5078"/><text fill="#ADD8E6" font-family="sans-serif" font-size="14" lengthAdjust="spacing" textLength="70" x="41.0308" y="266.7363">&#21547;&#26377;&#23376;&#20989;&#25968;</text><line style="stroke:#181818;stroke-width:1;" x1="111.0308" x2="144.0615" y1="261.5078" y2="261.5078"/><ellipse cx="18" cy="355.0547" fill="#84BE84" rx="3" ry="3" style="stroke:#038048;stroke-width:1;"/><text fill="#000000" font-family="sans-serif" font-size="14" lengthAdjust="spacing" textLength="101.1855" x="27" y="359.2832">__deepcopy__()</text><ellipse cx="18" cy="372.6641" fill="#84BE84" rx="3" ry="3" style="stroke:#038048;stroke-width:1;"/><text fill="#000000" font-family="sans-serif" font-size="14" lengthAdjust="spacing" textLength="65.3652" x="27" y="376.8926">__repr__()</text><ellipse cx="18" cy="390.2734" fill="#84BE84" rx="3" ry="3" style="stroke:#038048;stroke-width:1;"/><text fill="#000000" font-family="sans-serif" font-size="14" lengthAdjust="spacing" textLength="80.1582" x="27" y="394.502">__getattr__()</text><line style="stroke:#181818;stroke-width:1;" x1="8" x2="62.0308" y1="335.9453" y2="335.9453"/><text fill="#FFA500" font-family="sans-serif" font-size="14" lengthAdjust="spacing" textLength="28" x="62.0308" y="341.1738">&#20854;&#20182;</text><line style="stroke:#181818;stroke-width:1;" x1="90.0308" x2="144.0615" y1="335.9453" y2="335.9453"/><ellipse cx="18" cy="429.4922" fill="#84BE84" rx="3" ry="3" style="stroke:#038048;stroke-width:1;"/><text fill="#000000" font-family="sans-serif" font-size="14" lengthAdjust="spacing" textLength="34.2207" x="27" y="433.7207">split()</text><ellipse cx="18" cy="447.1016" fill="#84BE84" rx="3" ry="3" style="stroke:#038048;stroke-width:1;"/><text fill="#000000" font-family="sans-serif" font-size="14" lengthAdjust="spacing" textLength="112.0615" x="27" y="451.3301">get_group_class()</text><line style="stroke:#181818;stroke-width:1;" x1="8" x2="55.0308" y1="410.3828" y2="410.3828"/><text fill="#800080" font-family="sans-serif" font-size="14" lengthAdjust="spacing" textLength="42" x="55.0308" y="415.6113">&#23376;&#20989;&#25968;</text><line style="stroke:#181818;stroke-width:1;" x1="97.0308" x2="144.0615" y1="410.3828" y2="410.3828"/></g><!--SRC=[PP3DIWCn58NtVOhGbL9c7a1atg3F4DAPInhC9E7cPY7YKbhHGZUwKd3dGWHNRgHlq_Gv7CCup4zsEJdtoxa7JAXPlMJ2itajf2gNG6jRpMzch3bPTbbQRV528e0fulOrlZ_4n-SiIyyBnhaoYZW_Eqz2dhT-hUIQHaFnSnytXzFJLvwtqmWUY3kh3FcMi60I3A0W6ElfeqJ_rxfqJfch8kxUZeTTBvcegYvOIZeMV5WD3NsXWwTLLZf04VSVfvVxRer-2GGuG6amWxi4QZprb6vH6DcWxxwFF_rQAm1NMdSze20u76C54KwnBg3J3NQIrJkjgDSrSOasE5vguVzwlPtz0W00]--></g></svg>