<svg xmlns="http://www.w3.org/2000/svg" xmlns:xlink="http://www.w3.org/1999/xlink" contentStyleType="text/css" data-diagram-type="CLASS" height="139px" preserveAspectRatio="none" style="width:278px;height:139px;background:#FFFFFF;" version="1.1" viewBox="0 0 278 139" width="278px" zoomAndPan="magnify"><defs/><g><!--class tC--><g class="entity" data-entity="tC" data-source-line="1" data-uid="ent0002" id="entity_tC"><rect fill="#F1F1F1" height="118.4375" rx="2.5" ry="2.5" style="stroke:#181818;stroke-width:0.5;" width="257.8955" x="7" y="7"/><ellipse cx="89.2842" cy="23" fill="#EB937F" rx="11" ry="11" style="stroke:#181818;stroke-width:1;"/><path d="M88.1436,23.7969 L88.1436,26.2969 L92.4717,26.2969 L92.4717,25.375 Q92.4717,24.7656 92.7061,24.5 Q92.9561,24.2344 93.3311,24.2344 Q93.7061,24.2344 93.9404,24.5 Q94.1748,24.7656 94.1748,25.375 L94.1748,28 L86.1748,28 Q85.5498,28 85.2842,27.7656 Q85.0342,27.5313 85.0342,27.1406 Q85.0342,26.7656 85.2998,26.5313 Q85.5654,26.2969 86.1748,26.2969 L86.4404,26.2969 L86.4404,19.6406 L86.1748,19.6406 Q85.5498,19.6406 85.2842,19.4063 Q85.0342,19.1719 85.0342,18.7813 Q85.0342,18.4063 85.2842,18.1719 Q85.5498,17.9375 86.1748,17.9375 L93.7998,17.9375 L93.7998,20.5313 Q93.7998,21.1406 93.5654,21.4063 Q93.3467,21.6563 92.9561,21.6563 Q92.5811,21.6563 92.3467,21.4063 Q92.1123,21.1406 92.1123,20.5313 L92.1123,19.6406 L88.1436,19.6406 L88.1436,22.0938 L89.6279,22.0938 Q89.6279,21.4375 89.7529,21.25 Q90.0186,20.8438 90.4873,20.8438 Q90.8623,20.8438 91.0967,21.1094 Q91.3311,21.3594 91.3311,21.9688 L91.3311,23.9375 Q91.3311,24.4844 91.2061,24.6719 Q90.9404,25.0625 90.4873,25.0625 Q90.0186,25.0625 89.7529,24.6563 Q89.6279,24.4688 89.6279,23.7969 L88.1436,23.7969 Z " fill="#000000"/><text fill="#000000" font-family="sans-serif" font-size="14" lengthAdjust="spacing" textLength="84.8271" x="109.7842" y="28.7285">typeChecking</text><line style="stroke:#181818;stroke-width:0.5;" x1="8" x2="263.8955" y1="39" y2="39"/><ellipse cx="18" cy="74.9141" fill="#84BE84" rx="3" ry="3" style="stroke:#038048;stroke-width:1;"/><text fill="#000000" font-family="sans-serif" font-size="14" lengthAdjust="spacing" textLength="231.8955" x="27" y="79.1426">_assert_valid_submobjects_internal()</text><line style="stroke:#181818;stroke-width:1;" x1="8" x2="107.9478" y1="55.8047" y2="55.8047"/><text fill="#87CEFA" font-family="sans-serif" font-size="14" lengthAdjust="spacing" textLength="56" x="107.9478" y="61.0332">&#24213;&#23618;&#23454;&#29616;</text><line style="stroke:#181818;stroke-width:1;" x1="163.9478" x2="263.8955" y1="55.8047" y2="55.8047"/><ellipse cx="18" cy="114.1328" fill="#84BE84" rx="3" ry="3" style="stroke:#038048;stroke-width:1;"/><text fill="#000000" font-family="sans-serif" font-size="14" lengthAdjust="spacing" textLength="178.1924" x="27" y="118.3613">_assert_valid_submobjects()</text><line style="stroke:#181818;stroke-width:1;" x1="8" x2="121.9478" y1="95.0234" y2="95.0234"/><text fill="#FFC0CB" font-family="sans-serif" font-size="14" lengthAdjust="spacing" textLength="28" x="121.9478" y="100.252">&#25509;&#21475;</text><line style="stroke:#181818;stroke-width:1;" x1="149.9478" x2="263.8955" y1="95.0234" y2="95.0234"/></g><!--SRC=[IyqhpLKeSLP8B5PGAgaiI7NEI4tEpinBLwhcKW02NLsRvFoS_2AhdCpqZ9BYxCgadD9KkwUxfZxTsFHqtRpdVHjqTS4AjHNY4ukBKujAuiiISp9JuejBatBpax9IaqkAupFpIbAByX9pD3HHpIp8pCksUzQtz6d_OiAc03NN0W00]--></g></svg>