<svg xmlns="http://www.w3.org/2000/svg" xmlns:xlink="http://www.w3.org/1999/xlink" contentStyleType="text/css" data-diagram-type="CLASS" height="139px" preserveAspectRatio="none" style="width:136px;height:139px;background:#FFFFFF;" version="1.1" viewBox="0 0 136 139" width="136px" zoomAndPan="magnify"><defs/><g><!--class sO--><g class="entity" data-entity="sO" data-source-line="1" data-uid="ent0002" id="entity_sO"><rect fill="#F1F1F1" height="118.4375" rx="2.5" ry="2.5" style="stroke:#181818;stroke-width:0.5;" width="115.5029" x="7" y="7"/><ellipse cx="23.5051" cy="23" fill="#EB937F" rx="11" ry="11" style="stroke:#181818;stroke-width:1;"/><path d="M22.3645,23.7969 L22.3645,26.2969 L26.6926,26.2969 L26.6926,25.375 Q26.6926,24.7656 26.927,24.5 Q27.177,24.2344 27.552,24.2344 Q27.927,24.2344 28.1614,24.5 Q28.3958,24.7656 28.3958,25.375 L28.3958,28 L20.3958,28 Q19.7708,28 19.5051,27.7656 Q19.2551,27.5313 19.2551,27.1406 Q19.2551,26.7656 19.5208,26.5313 Q19.7864,26.2969 20.3958,26.2969 L20.6614,26.2969 L20.6614,19.6406 L20.3958,19.6406 Q19.7708,19.6406 19.5051,19.4063 Q19.2551,19.1719 19.2551,18.7813 Q19.2551,18.4063 19.5051,18.1719 Q19.7708,17.9375 20.3958,17.9375 L28.0208,17.9375 L28.0208,20.5313 Q28.0208,21.1406 27.7864,21.4063 Q27.5676,21.6563 27.177,21.6563 Q26.802,21.6563 26.5676,21.4063 Q26.3333,21.1406 26.3333,20.5313 L26.3333,19.6406 L22.3645,19.6406 L22.3645,22.0938 L23.8489,22.0938 Q23.8489,21.4375 23.9739,21.25 Q24.2395,20.8438 24.7083,20.8438 Q25.0833,20.8438 25.3176,21.1094 Q25.552,21.3594 25.552,21.9688 L25.552,23.9375 Q25.552,24.4844 25.427,24.6719 Q25.1614,25.0625 24.7083,25.0625 Q24.2395,25.0625 23.9739,24.6563 Q23.8489,24.4688 23.8489,23.7969 L22.3645,23.7969 Z " fill="#000000"/><text fill="#000000" font-family="sans-serif" font-size="14" lengthAdjust="spacing" textLength="80.1582" x="37.8396" y="28.7285">setOperation</text><line style="stroke:#181818;stroke-width:0.5;" x1="8" x2="121.5029" y1="39" y2="39"/><line style="stroke:#181818;stroke-width:0.5;" x1="8" x2="121.5029" y1="47" y2="47"/><ellipse cx="18" cy="61.3047" fill="#84BE84" rx="3" ry="3" style="stroke:#038048;stroke-width:1;"/><text fill="#000000" font-family="sans-serif" font-size="14" lengthAdjust="spacing" textLength="32.6826" x="27" y="65.5332">add()</text><ellipse cx="18" cy="78.9141" fill="#84BE84" rx="3" ry="3" style="stroke:#038048;stroke-width:1;"/><text fill="#000000" font-family="sans-serif" font-size="14" lengthAdjust="spacing" textLength="43.5586" x="27" y="83.1426">insert()</text><ellipse cx="18" cy="96.5234" fill="#84BE84" rx="3" ry="3" style="stroke:#038048;stroke-width:1;"/><text fill="#000000" font-family="sans-serif" font-size="14" lengthAdjust="spacing" textLength="89.5029" x="27" y="100.752">add_to_back()</text><ellipse cx="18" cy="114.1328" fill="#84BE84" rx="3" ry="3" style="stroke:#038048;stroke-width:1;"/><text fill="#000000" font-family="sans-serif" font-size="14" lengthAdjust="spacing" textLength="56.0068" x="27" y="118.3613">remove()</text></g><!--SRC=[IyqhpLKezbT8B5PGAaujyIz8BKeioSpFKwhcKW02RON4b1GDJIWxCwyujQW4pWLAnPVanoSb9cV3nOfIS_FBKe7SMW00]--></g></svg>