<svg xmlns="http://www.w3.org/2000/svg" xmlns:xlink="http://www.w3.org/1999/xlink" contentStyleType="text/css" data-diagram-type="CLASS" height="378px" preserveAspectRatio="none" style="width:212px;height:378px;background:#FFFFFF;" version="1.1" viewBox="0 0 212 378" width="212px" zoomAndPan="magnify"><defs/><g><!--class property--><g class="entity" data-entity="property" data-source-line="1" data-uid="ent0002" id="entity_property"><rect fill="#F1F1F1" height="364.1641" rx="2.5" ry="2.5" style="stroke:#181818;stroke-width:0.5;" width="198.751" x="7" y="7"/><ellipse cx="62.4463" cy="23" fill="#EB937F" rx="11" ry="11" style="stroke:#181818;stroke-width:1;"/><path d="M61.3057,23.7969 L61.3057,26.2969 L65.6338,26.2969 L65.6338,25.375 Q65.6338,24.7656 65.8682,24.5 Q66.1182,24.2344 66.4932,24.2344 Q66.8682,24.2344 67.1025,24.5 Q67.3369,24.7656 67.3369,25.375 L67.3369,28 L59.3369,28 Q58.7119,28 58.4463,27.7656 Q58.1963,27.5313 58.1963,27.1406 Q58.1963,26.7656 58.4619,26.5313 Q58.7275,26.2969 59.3369,26.2969 L59.6025,26.2969 L59.6025,19.6406 L59.3369,19.6406 Q58.7119,19.6406 58.4463,19.4063 Q58.1963,19.1719 58.1963,18.7813 Q58.1963,18.4063 58.4463,18.1719 Q58.7119,17.9375 59.3369,17.9375 L66.9619,17.9375 L66.9619,20.5313 Q66.9619,21.1406 66.7275,21.4063 Q66.5088,21.6563 66.1182,21.6563 Q65.7432,21.6563 65.5088,21.4063 Q65.2744,21.1406 65.2744,20.5313 L65.2744,19.6406 L61.3057,19.6406 L61.3057,22.0938 L62.79,22.0938 Q62.79,21.4375 62.915,21.25 Q63.1807,20.8438 63.6494,20.8438 Q64.0244,20.8438 64.2588,21.1094 Q64.4932,21.3594 64.4932,21.9688 L64.4932,23.9375 Q64.4932,24.4844 64.3682,24.6719 Q64.1025,25.0625 63.6494,25.0625 Q63.1807,25.0625 62.915,24.6563 Q62.79,24.4688 62.79,23.7969 L61.3057,23.7969 Z " fill="#000000"/><text fill="#000000" font-family="sans-serif" font-size="14" lengthAdjust="spacing" textLength="79.3584" x="82.9463" y="28.7285">property&#23646;&#24615;</text><line style="stroke:#181818;stroke-width:0.5;" x1="8" x2="204.751" y1="39" y2="39"/><ellipse cx="18" cy="74.9141" fill="none" rx="3" ry="3" style="stroke:#038048;stroke-width:1;"/><text fill="#000000" font-family="sans-serif" font-size="14" lengthAdjust="spacing" textLength="32.6826" x="27" y="79.1426">width</text><ellipse cx="18" cy="92.5234" fill="none" rx="3" ry="3" style="stroke:#038048;stroke-width:1;"/><text fill="#000000" font-family="sans-serif" font-size="14" lengthAdjust="spacing" textLength="38.1445" x="27" y="96.752">height</text><ellipse cx="18" cy="110.1328" fill="none" rx="3" ry="3" style="stroke:#038048;stroke-width:1;"/><text fill="#000000" font-family="sans-serif" font-size="14" lengthAdjust="spacing" textLength="35.0342" x="27" y="114.3613">depth</text><line style="stroke:#181818;stroke-width:1;" x1="8" x2="92.3755" y1="55.8047" y2="55.8047"/><text fill="#90EE90" font-family="sans-serif" font-size="14" lengthAdjust="spacing" textLength="28" x="92.3755" y="61.0332">&#22522;&#26412;</text><line style="stroke:#181818;stroke-width:1;" x1="120.3755" x2="204.751" y1="55.8047" y2="55.8047"/><ellipse cx="18" cy="149.3516" fill="none" rx="3" ry="3" style="stroke:#038048;stroke-width:1;"/><text fill="#000000" font-family="sans-serif" font-size="14" lengthAdjust="spacing" textLength="32.6826" x="27" y="153.5801">width</text><ellipse cx="18" cy="166.9609" fill="none" rx="3" ry="3" style="stroke:#038048;stroke-width:1;"/><text fill="#000000" font-family="sans-serif" font-size="14" lengthAdjust="spacing" textLength="38.1445" x="27" y="171.1895">height</text><ellipse cx="18" cy="184.5703" fill="none" rx="3" ry="3" style="stroke:#038048;stroke-width:1;"/><text fill="#000000" font-family="sans-serif" font-size="14" lengthAdjust="spacing" textLength="35.0342" x="27" y="188.7988">depth</text><line style="stroke:#181818;stroke-width:1;" x1="8" x2="88.8687" y1="130.2422" y2="130.2422"/><text fill="#87CEFA" font-family="sans-serif" font-size="14" lengthAdjust="spacing" textLength="35.0137" x="88.8687" y="135.4707">setter</text><line style="stroke:#181818;stroke-width:1;" x1="123.8823" x2="204.751" y1="130.2422" y2="130.2422"/><line style="stroke:#181818;stroke-width:1;" x1="8" x2="78.3755" y1="204.6797" y2="204.6797"/><text fill="#FFA500" font-family="sans-serif" font-size="14" lengthAdjust="spacing" textLength="56" x="78.3755" y="209.9082">&#28041;&#21450;&#26041;&#27861;</text><line style="stroke:#181818;stroke-width:1;" x1="134.3755" x2="204.751" y1="204.6797" y2="204.6797"/><ellipse cx="18" cy="250.2031" fill="#84BE84" rx="3" ry="3" style="stroke:#038048;stroke-width:1;"/><text fill="#000000" font-family="sans-serif" font-size="14" lengthAdjust="spacing" textLength="172.751" x="27" y="254.4316">reduce_across_dimension()</text><ellipse cx="18" cy="267.8125" fill="#84BE84" rx="3" ry="3" style="stroke:#038048;stroke-width:1;"/><text fill="#000000" font-family="sans-serif" font-size="14" lengthAdjust="spacing" textLength="92.5928" x="27" y="272.041">rescale_to_fit()</text><line style="stroke:#181818;stroke-width:1;stroke-dasharray:1.0,2.0;" x1="8" x2="78.3755" y1="231.0938" y2="231.0938"/><text fill="#FFC0CB" font-family="sans-serif" font-size="14" lengthAdjust="spacing" textLength="56" x="78.3755" y="236.3223">&#24213;&#23618;&#23454;&#29616;</text><line style="stroke:#181818;stroke-width:1;stroke-dasharray:1.0,2.0;" x1="134.3755" x2="204.751" y1="231.0938" y2="231.0938"/><ellipse cx="18" cy="307.0313" fill="#84BE84" rx="3" ry="3" style="stroke:#038048;stroke-width:1;"/><text fill="#000000" font-family="sans-serif" font-size="14" lengthAdjust="spacing" textLength="112.834" x="27" y="311.2598">length_over_dim()</text><ellipse cx="18" cy="324.6406" fill="#84BE84" rx="3" ry="3" style="stroke:#038048;stroke-width:1;"/><text fill="#000000" font-family="sans-serif" font-size="14" lengthAdjust="spacing" textLength="120.6133" x="27" y="328.8691">scale_to_fit_width()</text><ellipse cx="18" cy="342.25" fill="#84BE84" rx="3" ry="3" style="stroke:#038048;stroke-width:1;"/><text fill="#000000" font-family="sans-serif" font-size="14" lengthAdjust="spacing" textLength="126.0752" x="27" y="346.4785">scale_to_fit_height()</text><ellipse cx="18" cy="359.8594" fill="#84BE84" rx="3" ry="3" style="stroke:#038048;stroke-width:1;"/><text fill="#000000" font-family="sans-serif" font-size="14" lengthAdjust="spacing" textLength="122.9648" x="27" y="364.0879">scale_to_fit_depth()</text><line style="stroke:#181818;stroke-width:1;stroke-dasharray:1.0,2.0;" x1="8" x2="92.3755" y1="287.9219" y2="287.9219"/><text fill="#0000FF" font-family="sans-serif" font-size="14" lengthAdjust="spacing" textLength="28" x="92.3755" y="293.1504">&#25509;&#21475;</text><line style="stroke:#181818;stroke-width:1;stroke-dasharray:1.0,2.0;" x1="120.3755" x2="204.751" y1="287.9219" y2="287.9219"/></g><!--SRC=[dLBjIiCm5Fs_foZxewBh0uZhguJQNRUoBYbfgWuHXbzZGpT59wXpWXyeVh4na3dqRPPCtyAiJQkJWM0f9SavFVVSSmFOBsWk9IvGLjHCJqj66zvfYT9jSYsXoIULMh28G-YyOsTpB4i1iC4l-gBvc4e5X5bjnSwmd5hdO4HJcmou2XXNyVB5HSS7mmF6WFvBXr0JPy4GBnLUhuhZLz5jA1rTLnJNndc3znkyiy6VMyDQMzUL7eMCRm4oBKey3sNi0c3F9dXw9iOzotG0COAMRAQEOzt0kgZTyFfLhEW0ph8S8ij0HtgnqayT5FGt6GhRdOm5tKjeFG6hbbnBfv73O6pZRiCirF3IwIWBdxeE6Fpza5VsGaew_RFOTsb6WLcHpJXlImRk605rq7lYkzjy_s4izl491zahgSdyMSrqNQU8N69Zvg4b7rkZpf2vI7mMdYeF2Ft9_5K28LL2PaQX8ASI1PQOqlZEoV2yfBxr0talUFbTDDeVxStXqTtmT4iqAuF-6Ry-vOsghkkYU_TPhefQPKxiNGvwzx84VwlB_-Nx1G00]--></g></svg>