<svg xmlns="http://www.w3.org/2000/svg" xmlns:xlink="http://www.w3.org/1999/xlink" contentStyleType="text/css" data-diagram-type="CLASS" height="121px" preserveAspectRatio="none" style="width:131px;height:121px;background:#FFFFFF;" version="1.1" viewBox="0 0 131 121" width="131px" zoomAndPan="magnify"><defs/><g><!--class cameraInterface--><g class="entity" data-entity="cameraInterface" data-source-line="1" data-uid="ent0002" id="entity_cameraInterface"><rect fill="#F1F1F1" height="100.8281" rx="2.5" ry="2.5" style="stroke:#181818;stroke-width:0.5;" width="110.8135" x="7" y="7"/><ellipse cx="52.7119" cy="23" fill="#EB937F" rx="11" ry="11" style="stroke:#181818;stroke-width:1;"/><path d="M51.5713,23.7969 L51.5713,26.2969 L55.8994,26.2969 L55.8994,25.375 Q55.8994,24.7656 56.1338,24.5 Q56.3838,24.2344 56.7588,24.2344 Q57.1338,24.2344 57.3682,24.5 Q57.6025,24.7656 57.6025,25.375 L57.6025,28 L49.6025,28 Q48.9775,28 48.7119,27.7656 Q48.4619,27.5313 48.4619,27.1406 Q48.4619,26.7656 48.7275,26.5313 Q48.9932,26.2969 49.6025,26.2969 L49.8682,26.2969 L49.8682,19.6406 L49.6025,19.6406 Q48.9775,19.6406 48.7119,19.4063 Q48.4619,19.1719 48.4619,18.7813 Q48.4619,18.4063 48.7119,18.1719 Q48.9775,17.9375 49.6025,17.9375 L57.2275,17.9375 L57.2275,20.5313 Q57.2275,21.1406 56.9932,21.4063 Q56.7744,21.6563 56.3838,21.6563 Q56.0088,21.6563 55.7744,21.4063 Q55.54,21.1406 55.54,20.5313 L55.54,19.6406 L51.5713,19.6406 L51.5713,22.0938 L53.0557,22.0938 Q53.0557,21.4375 53.1807,21.25 Q53.4463,20.8438 53.915,20.8438 Q54.29,20.8438 54.5244,21.1094 Q54.7588,21.3594 54.7588,21.9688 L54.7588,23.9375 Q54.7588,24.4844 54.6338,24.6719 Q54.3682,25.0625 53.915,25.0625 Q53.4463,25.0625 53.1807,24.6563 Q53.0557,24.4688 53.0557,23.7969 L51.5713,23.7969 Z " fill="#000000"/><text fill="#000000" font-family="sans-serif" font-size="14" lengthAdjust="spacing" textLength="10.8896" x="73.2119" y="28.7285">cI</text><line style="stroke:#181818;stroke-width:0.5;" x1="8" x2="116.8135" y1="39" y2="39"/><line style="stroke:#181818;stroke-width:0.5;" x1="8" x2="116.8135" y1="47" y2="47"/><ellipse cx="18" cy="61.3047" fill="#84BE84" rx="3" ry="3" style="stroke:#038048;stroke-width:1;"/><text fill="#000000" font-family="sans-serif" font-size="14" lengthAdjust="spacing" textLength="74.7031" x="27" y="65.5332">get_image()</text><ellipse cx="18" cy="78.9141" fill="#84BE84" rx="3" ry="3" style="stroke:#038048;stroke-width:1;"/><text fill="#000000" font-family="sans-serif" font-size="14" lengthAdjust="spacing" textLength="42.0068" x="27" y="83.1426">show()</text><ellipse cx="18" cy="96.5234" fill="#84BE84" rx="3" ry="3" style="stroke:#038048;stroke-width:1;"/><text fill="#000000" font-family="sans-serif" font-size="14" lengthAdjust="spacing" textLength="84.8135" x="27" y="100.752">save_image()</text></g><!--SRC=[SyqhpLL8JinDBKhqp2j9BKfBJ4vLI2nMK4hsLAhcKW02RONqr9BupDp4z5GDJQX8SKP-EOAJM9OAbwy50000]--></g></svg>