<?xml version="1.0" encoding="UTF-8"?>
<svg id="node" xmlns="http://www.w3.org/2000/svg" viewBox="0 0 169.75 199.89">
  <defs>
    <style>
      .cls-1 {
        fill: #60e000;
      }

      .cls-2 {
        fill: #6d8aca;
      }

      .cls-3 {
        fill: #4762af;
      }
    </style>
  </defs>
  <path class="cls-3" d="M91.05,103.51c-3.41-1.97-8.57-2.18-11.52-.48L1.99,147.8c-2.95,1.7-2.58,4.69.83,6.65l75.88,43.81c3.41,1.97,8.57,2.18,11.53.48l77.53-44.77c2.95-1.7,2.58-4.69-.83-6.65l-75.88-43.81h0ZM0,48.81v101.88l84.88,49.2v-101.88L0,48.81Z"/>
  <path class="cls-3" d="M84.41,96.75l85.34-48.28v102.42l-85.34-18.27v-35.87Z"/>
  <path class="cls-2" d="M91.05,1.63c-3.41-1.97-8.57-2.18-11.52-.48L1.99,45.91c-2.95,1.71-2.58,4.69.83,6.65l75.88,43.81c3.41,1.97,8.57,2.18,11.53.48l77.53-44.76c2.95-1.71,2.58-4.69-.83-6.65L91.05,1.63ZM8.35,84.04c0,3.32,2.02,7.18,4.51,8.62l34.97,20.19c2.49,1.44,4.51-.09,4.51-3.41s-2.02-7.18-4.51-8.62l-34.97-20.19c-2.49-1.44-4.51.09-4.51,3.41ZM8.35,109.88c0,3.32,2.02,7.18,4.51,8.62l34.97,20.19c2.49,1.44,4.51-.09,4.51-3.41s-2.02-7.18-4.51-8.62l-34.97-20.19c-2.49-1.44-4.51.09-4.51,3.41h0ZM8.35,135.71c0,3.32,2.02,7.18,4.51,8.62l34.97,20.19c2.49,1.44,4.51-.09,4.51-3.41s-2.02-7.18-4.51-8.62l-34.97-20.19c-2.49-1.44-4.51.09-4.51,3.41Z"/>
  <path class="cls-1" d="M69.21,113.17c2.88,1.66,5.21,5.7,5.21,9.02s-2.33,4.67-5.21,3.01c-2.87-1.66-5.21-5.71-5.21-9.03s2.34-4.67,5.21-3.01ZM69.21,139c2.88,1.66,5.21,5.7,5.21,9.03s-2.33,4.67-5.21,3.01c-2.87-1.66-5.21-5.7-5.21-9.03s2.34-4.67,5.21-3.01ZM69.21,164.83c2.88,1.66,5.21,5.7,5.21,9.03s-2.33,4.67-5.21,3.01c-2.87-1.66-5.21-5.7-5.21-9.03s2.34-4.67,5.21-3.01Z"/>
</svg>