<?xml version="1.0" encoding="UTF-8"?>
<svg id="_图层_1" data-name="图层 1" xmlns="http://www.w3.org/2000/svg" viewBox="0 0 175 141.5">
  <defs>
    <style>
      .cls-1 {
        fill: #282727;
      }

      .cls-2 {
        fill: #e02727;
      }
    </style>
  </defs>
  <path class="cls-1" d="M164.84,0H10.16C4.55,0,0,4.55,0,10.16v105.49c0,5.61,4.55,10.16,10.16,10.16h154.69c5.61,0,10.16-4.55,10.16-10.16V10.16c0-5.61-4.53-10.16-10.16-10.16ZM167.83,102.91H6.95V9.06h160.88v93.85ZM11.66,13.77h151.46v84.45H11.66V13.77ZM67.27,125.86h40.64v6.09h-40.64v-6.09ZM162.07,141.5H15.06c-.2,0-.37-.18-.37-.37,0-.12.06-.21.14-.29l9.16-7.27c2.48-1.97,5.57-3.05,8.73-3.05h111.82c3.09,0,6.07,1.04,8.5,2.97l9.26,7.34c.16.14.18.37.06.53-.06.08-.18.14-.27.14Z"/>
  <path class="cls-2" d="M81.7,113.89c0,3.2,2.6,5.8,5.8,5.8s5.8-2.6,5.8-5.8h0c0-3.2-2.59-5.8-5.8-5.8-3.2,0-5.8,2.59-5.8,5.8,0,0,0,0,0,0Z"/>
</svg>